<?xml version="1.0" standalone="no"?>
<!DOCTYPE svg PUBLIC "-//W3C//DTD SVG 1.1//EN" "http://www.w3.org/Graphics/SVG/1.1/DTD/svg11.dtd" >
<svg>
<metadata>
Created by FontForge 20110222 at Thu Apr 17 07:35:50 2014
 By deploy user
Copyright (C) 2006, 2010 Hoefler &#38; Frere-Jones. http://www.typography.com
</metadata>
<defs>
<font id="Forza-MediumItalic" horiz-adv-x="585" >
  <font-face 
    font-family="Forza Medium"
    font-weight="350"
    font-style="italic"
    font-stretch="normal"
    units-per-em="1000"
    panose-1="0 0 0 0 0 0 0 0 0 0"
    ascent="800"
    descent="-200"
    x-height="540"
    cap-height="700"
    bbox="-153 -325 1048 1012"
    underline-thickness="50"
    underline-position="-50"
    slope="-14"
    unicode-range="U+0020-FB04"
  />
<missing-glyph horiz-adv-x="494" 
d="M-3 -200v1000h500v-1000h-500zM68 750l179 -390l179 390h-358zM47 -76l172 376l-172 376v-752zM447 676l-172 -376l172 -376v752zM247 240l-179 -390h358z" />
    <glyph glyph-name="f_f" unicode="ff" horiz-adv-x="708" 
d="M150 0h-104l111 450h-89l23 90h89l5 20q22 89 53 122q22 22 46 30t65 8h88l-23 -88h-59q-31 0 -42 -11q-14 -14 -25 -63l-4 -18h117l-23 -90h-116zM504 0h-104l111 450h-89l23 90h89l5 20q22 89 53 122q22 22 46 30t65 8h88l-23 -88h-59q-31 0 -42 -11q-14 -14 -25 -63
l-4 -18h117l-23 -90h-116z" />
    <glyph glyph-name="fi" unicode="fi" horiz-adv-x="604" 
d="M150 0h-104l111 450h-89l23 90h89l5 20q22 89 53 122q22 22 46 30t65 8h88l-23 -88h-59q-31 0 -42 -11q-14 -14 -25 -63l-4 -18h117l-23 -90h-116zM654 730l-28 -111h-118l28 111h118zM599 540l-136 -540h-104l136 540h104z" />
    <glyph glyph-name="fl" unicode="fl" horiz-adv-x="604" 
d="M150 0h-104l111 450h-89l23 90h89l5 20q22 89 53 122q22 22 46 30t65 8h88l-23 -88h-59q-31 0 -42 -11q-14 -14 -25 -63l-4 -18h117l-23 -90h-116zM464 0h-104l179 720h104z" />
    <glyph glyph-name="f_f_i" unicode="ffi" horiz-adv-x="958" 
d="M150 0h-104l111 450h-89l23 90h89l5 20q22 89 53 122q22 22 46 30t65 8h88l-23 -88h-59q-31 0 -42 -11q-14 -14 -25 -63l-4 -18h117l-23 -90h-116zM504 0h-104l111 450h-89l23 90h89l5 20q22 89 53 122q22 22 46 30t65 8h88l-23 -88h-59q-31 0 -42 -11q-14 -14 -25 -63
l-4 -18h117l-23 -90h-116zM1008 730l-28 -111h-118l28 111h118zM953 540l-136 -540h-104l136 540h104z" />
    <glyph glyph-name="f_f_l" unicode="ffl" horiz-adv-x="958" 
d="M150 0h-104l111 450h-89l23 90h89l5 20q22 89 53 122q22 22 46 30t65 8h88l-23 -88h-59q-31 0 -42 -11q-14 -14 -25 -63l-4 -18h117l-23 -90h-116zM504 0h-104l111 450h-89l23 90h89l5 20q22 89 53 122q22 22 46 30t65 8h88l-23 -88h-59q-31 0 -42 -11q-14 -14 -25 -63
l-4 -18h117l-23 -90h-116zM818 0h-104l179 720h104z" />
    <glyph glyph-name=".notdef" horiz-adv-x="494" 
d="M-3 -200v1000h500v-1000h-500zM68 750l179 -390l179 390h-358zM47 -76l172 376l-172 376v-752zM447 676l-172 -376l172 -376v752zM247 240l-179 -390h358z" />
    <glyph glyph-name=".null" horiz-adv-x="0" 
 />
    <glyph glyph-name="nonmarkingreturn" horiz-adv-x="333" 
 />
    <glyph glyph-name="space" unicode=" " horiz-adv-x="210" 
 />
    <glyph glyph-name="exclam" unicode="!" horiz-adv-x="332" 
d="M180 220h-45l60 443l10 37h134l-8 -36zM67 134h127l-32 -134h-127z" />
    <glyph glyph-name="quotedbl" unicode="&#x22;" horiz-adv-x="497" 
d="M155 427l26 273h134v-20l-104 -253h-56zM369 427l26 273h134v-20l-104 -253h-56z" />
    <glyph glyph-name="numbersign" unicode="#" horiz-adv-x="737" 
d="M160 537h130l74 163h99l-74 -163h160l74 163h99l-74 -163h109l-19 -89h-130l-82 -180h109l-18 -89h-131l-81 -179h-99l81 179h-160l-82 -179h-99l81 179h-107l18 89h130l81 180h-108zM346 452l-85 -188h168l85 188h-168z" />
    <glyph glyph-name="dollar" unicode="$" horiz-adv-x="636" 
d="M51 220h105q-25 -106 -13 -118q7 -7 37 -7h54l55 217l-48 10q-45 9 -65.5 17.5t-36.5 24.5q-20 20 -22.5 53t11.5 97q21 99 65 143q43 43 128 43h61l20 80h91l-20 -80h31q75 0 103 -28q24 -24 26 -64t-16 -123h-107q18 100 7 111q-9 9 -41 9h-31l-53 -211l52 -11
q73 -14 100 -41q22 -22 25 -54t-12 -95q-18 -70 -30.5 -98.5t-37.5 -53.5q-41 -41 -129 -41h-62l-22 -90h-91l22 90h-61q-70 0 -98 28q-21 26 -19.5 69t22.5 123zM412 287l-44 9l-50 -201h46q39 0 51 12q14 14 33 90q15 61 1 75q-9 10 -37 15zM235 435q10 -10 39 -16l39 -9
l49 195h-46q-38 0 -50 -12t-31 -84q-15 -59 0 -74z" />
    <glyph glyph-name="percent" unicode="%" horiz-adv-x="814" 
d="M148 -3h-91l346 373l303 333h91l-346 -373zM195 523q-21 -85 -9 -97q7 -7 28 -7h31q23 0 31 8q15 15 34 96q21 85 9 97q-7 7 -28 7h-31q-23 0 -31 -8q-15 -15 -34 -96zM393 523q-22 -106 -59 -143q-34 -34 -94 -34h-47q-49 0 -71 22q-19 19 -21.5 51.5t11.5 103.5
q22 106 59 143q34 34 94 34h47q49 0 71 -22q19 -19 21.5 -51.5t-11.5 -103.5zM544 177q-21 -85 -9 -97q7 -7 28 -7h31q23 0 31 8q15 15 34 96q21 85 9 97q-7 7 -28 7h-31q-23 0 -31 -8q-15 -15 -34 -96zM742 177q-22 -106 -59 -143q-34 -34 -94 -34h-47q-49 0 -71 22
q-19 19 -21.5 51.5t11.5 103.5q22 106 59 143q34 34 94 34h47q49 0 71 -22q19 -19 21.5 -51.5t-11.5 -103.5z" />
    <glyph glyph-name="ampersand" unicode="&#x26;" horiz-adv-x="700" 
d="M592 500h-106q19 89 8 100q-8 8 -46 8h-22q-44 0 -56 -13q-11 -12 -30 -87q-9 -33 -9 -60q0 -37 40 -96l60 -89h8l128 137h124l-205 -216l123 -184h-120l-70 105h-10l-36 -39q-36 -38 -66 -52.5t-83 -14.5h-48q-88 0 -121 33q-25 25 -27.5 64t14.5 111q17 73 28 99t31 46
q34 34 113 48l15 2q-6 20 -6 43q0 34 10 77q15 63 26.5 91t30.5 47q40 40 140 40h57q73 0 98 -25q22 -22 23 -62t-16 -113zM223 90q27 0 44 7t39 30l55 58l-99 145l-31 -7q-31 -7 -46 -22q-17 -17 -36 -94q-21 -87 -4 -104q13 -13 64 -13h14z" />
    <glyph glyph-name="quotesingle" unicode="'" horiz-adv-x="283" 
d="M155 427l26 273h134v-20l-104 -253h-56z" />
    <glyph glyph-name="parenleft" unicode="(" horiz-adv-x="398" 
d="M99 288q42 170 64 221q14 34 49 74t126 127h83q-122 -153 -139 -189q-29 -60 -72 -238q-48 -191 -48 -241q0 -59 38 -202h-69q-76 151 -76 223q0 54 44 225z" />
    <glyph glyph-name="parenright" unicode=")" horiz-adv-x="398" 
d="M301 262q-42 -170 -64 -221q-14 -34 -49 -74t-126 -127h-83q122 153 139 189q29 60 72 238q48 191 48 241q0 59 -38 202h69q76 -151 76 -223q0 -54 -44 -225z" />
    <glyph glyph-name="asterisk" unicode="*" horiz-adv-x="512" 
d="M171 429l102 77l29 -28l-74 -104zM160 612l117 -50l-9 -39l-127 11zM236 691l77 22l16 -126l-39 -11zM412 369l-77 -22l-16 126l39 11zM507 526l-19 -78l-117 50l9 39zM477 631l-102 -77l-29 28l74 104z" />
    <glyph glyph-name="plus" unicode="+" horiz-adv-x="508" 
d="M374 561l-38 -152h151l-23 -92h-151l-38 -152h-94l38 152h-151l23 92h151l38 152h94z" />
    <glyph glyph-name="comma" unicode="," horiz-adv-x="266" 
d="M35 134h127l-32 -128q-9 -39 -45 -68l-108 -88l-29 30l86 88q11 12 15 25l2 7h-49z" />
    <glyph glyph-name="hyphen" unicode="-" horiz-adv-x="400" 
d="M340 266h-282l26 106h282z" />
    <glyph glyph-name="period" unicode="." horiz-adv-x="266" 
d="M35 134h128l-33 -134h-128z" />
    <glyph glyph-name="slash" unicode="/" horiz-adv-x="497" 
d="M-44 -160h-109l625 870h109z" />
    <glyph glyph-name="zero" unicode="0" horiz-adv-x="671" 
d="M335 0h-106q-58 0 -87.5 7.5t-48.5 26.5q-68 68 -6 323q56 226 120 290q32 32 68 42.5t101 10.5h106q58 0 87.5 -7.5t48.5 -26.5q68 -68 6 -323q-56 -226 -120 -290q-32 -32 -68 -42.5t-101 -10.5zM476 605h-120q-49 0 -68 -19q-35 -35 -85 -236q-23 -91 -31 -145
t-5.5 -71t11.5 -26q13 -13 57 -13h120q49 0 68 19q35 35 85 236q23 91 31 145t5.5 71t-11.5 26q-13 13 -57 13z" />
    <glyph glyph-name="one" unicode="1" horiz-adv-x="374" 
d="M210 0h-112l146 586l-128 -40l-9 92l185 63h92z" />
    <glyph glyph-name="two" unicode="2" horiz-adv-x="621" 
d="M437 602h-86q-48 0 -65 -17q-15 -15 -37 -100h-115q33 127 75 169q46 46 149 46h119q94 0 125 -31q49 -49 23 -161q-20 -89 -67 -136q-33 -33 -132 -69l-185 -70q-52 -19 -70 -37q-25 -25 -36 -87l-2 -11h395l-24 -98h-504l17 77q17 78 34 116t42 63q39 39 144 78l182 68
q41 15 56 30q25 25 38 85q12 55 -5 72q-13 13 -71 13z" />
    <glyph glyph-name="three" unicode="3" horiz-adv-x="649" 
d="M564 194q-26 -100 -75 -150q-44 -44 -139 -44h-156q-96 0 -128 32q-50 50 -18 194h115q-20 -103 -6 -117t63 -14h120q49 0 66 17q25 25 41 95q18 77 -1 96q-14 14 -63 14h-129l23 92h136q48 0 65 17q23 23 38 81q16 66 -3 85q-13 13 -59 13h-108q-56 0 -71 -17
q-17 -19 -37 -99h-115q26 116 75 165q46 46 144 46h145q93 0 124 -31q49 -49 25 -157q-14 -62 -51 -102t-79 -49v-2q90 -37 58 -165z" />
    <glyph glyph-name="four" unicode="4" horiz-adv-x="646" 
d="M425 0h-109l44 177h-341l9 36q11 43 45 83l292 347q27 33 48.5 45t50.5 12h135l-108 -433h118l-22 -90h-118zM467 608h-17l-283 -341h215z" />
    <glyph glyph-name="five" unicode="5" horiz-adv-x="653" 
d="M456 226q21 89 0 110q-15 15 -60 15h-55q-78 0 -158 -43l-83 31l114 361h455l-25 -99h-352l-63 -194l4 -2q42 27 71 34t87 7h33q97 0 129 -34q54 -57 19 -196q-27 -110 -78 -161q-55 -55 -157 -55h-145q-88 0 -119 31q-51 51 -20 179h115q-18 -84 0 -102q13 -13 60 -13
h107q53 0 75 22q24 24 46 109z" />
    <glyph glyph-name="six" unicode="6" horiz-adv-x="647" 
d="M452 604h-87q-57 0 -79 -22q-36 -36 -82 -223q51 34 76.5 44t57.5 10h72q100 0 136 -36q53 -52 19 -188q-23 -90 -69 -136q-53 -53 -153 -53h-98q-66 0 -98.5 8.5t-52.5 28.5q-33 33 -36.5 95.5t27.5 213.5q50 227 122 299q34 34 71 44.5t110 10.5h95q85 0 117 -32
q47 -47 20 -165h-111q13 73 -2 88q-13 13 -55 13zM281 317q-35 0 -92 -23q-32 -153 -4 -181q16 -17 62 -17h94q52 0 73 21q22 22 38 89q19 74 -4 97q-14 14 -61 14h-106z" />
    <glyph glyph-name="seven" unicode="7" horiz-adv-x="574" 
d="M128 601l25 99h483l-19 -75l-447 -625h-125l432 601h-349z" />
    <glyph glyph-name="eight" unicode="8" horiz-adv-x="652" 
d="M252 508q-16 -67 2 -85q16 -14 59 -14h107q46 0 64 18q20 20 34 83t-5 82q-13 13 -67 13h-97q-51 0 -69 -18q-13 -13 -28 -79zM450 204q20 81 2 99q-15 16 -60 16h-112q-52 0 -73 -21q-22 -22 -39 -97q-16 -71 3 -90q17 -16 66 -16h103q52 0 73 21t37 88zM345 0h-135
q-93 0 -131 38q-52 53 -26 171q31 143 136 153v2q-81 35 -47 170q19 77 61 119q48 47 140 47h144q84 0 123 -37q53 -51 25 -162q-31 -123 -126 -137v-2q93 -32 53 -182q-25 -90 -64 -129q-51 -51 -153 -51z" />
    <glyph glyph-name="nine" unicode="9" horiz-adv-x="648" 
d="M404 118q34 34 78 207q-50 -33 -75.5 -43t-57.5 -10h-74q-100 0 -136 36q-52 51 -18 195q22 95 71 144q53 53 153 53h100q66 0 98.5 -8.5t52.5 -28.5q33 -33 36.5 -95.5t-27.5 -213.5q-50 -227 -122 -299q-34 -34 -71 -44.5t-110 -10.5h-107q-85 0 -117 32
q-46 46 -21 160h110q-12 -68 3 -83q13 -13 55 -13h100q57 0 79 22zM234 485q-20 -80 3 -103q14 -14 61 -14h108q39 0 91 23q36 166 8 196q-16 17 -62 17h-96q-52 0 -73 -21q-22 -22 -40 -98z" />
    <glyph glyph-name="colon" unicode=":" horiz-adv-x="266" 
d="M35 134h128l-33 -134h-128zM136 540h128l-33 -134h-128z" />
    <glyph glyph-name="semicolon" unicode=";" horiz-adv-x="266" 
d="M35 134h127l-32 -128q-9 -39 -45 -68l-108 -88l-29 30l86 88q11 12 15 25l2 7h-49zM136 540h128l-33 -134h-128z" />
    <glyph glyph-name="less" unicode="&#x3c;" horiz-adv-x="508" 
d="M490 486l-305 -130l240 -129l-25 -100l-329 189l23 94l423 189z" />
    <glyph glyph-name="equal" unicode="=" horiz-adv-x="508" 
d="M102 416l26 100h376l-26 -100h-376zM51 210l26 100h376l-26 -100h-376z" />
    <glyph glyph-name="greater" unicode="&#x3e;" horiz-adv-x="508" 
d="M38 127l27 113l305 129l-240 130l25 100l329 -189l-23 -94z" />
    <glyph glyph-name="question" unicode="?" horiz-adv-x="536" 
d="M138 133h125l-33 -133h-125zM87 478q22 86 38.5 124t37.5 59q39 39 129 39h129q85 0 116 -31q22 -22 24 -57t-12 -92q-15 -63 -28 -90t-35 -49q-27 -27 -132 -69q-47 -19 -64 -36q-12 -12 -26 -56h-83l7 29q19 77 44 102q26 26 108 58q52 20 68 36q15 15 29 71
q16 64 3 77q-10 10 -51 10h-103q-37 0 -49 -12t-40 -113h-110z" />
    <glyph glyph-name="at" unicode="@" horiz-adv-x="930" 
d="M132 275q-37 -175 -36 -250t31 -105q18 -18 47.5 -27t94.5 -9h389l-7 -34h-389q-53 0 -86.5 7t-47 15t-29.5 24q-74 74 -4 379q38 171 72 248t70 113q34 34 78.5 49t121.5 15h236q75 0 107.5 -11.5t54.5 -33.5q70 -70 10 -333q-42 -178 -86 -222q-39 -39 -98 -39h-30
q-40 0 -65 14t-48 49q-60 -44 -78 -53t-47 -9h-33q-53 0 -75 22q-21 21 -23 59.5t19 136.5q22 88 38 124.5t39 59.5q32 32 103 32h22q23 0 43 -11t72 -50l36 61h63l-34 -110l-56 -226q-8 -36 9 -52q10 -10 44 -10q30 0 45.5 4.5t29.5 18.5q34 34 73 201q31 143 29.5 211
t-33.5 100q-33 33 -137 33h-235q-68 0 -104 -11.5t-68 -43.5q-69 -69 -128 -336zM417 137q25 0 42 5.5t65 28.5l56 221q-50 29 -79 29h-36q-37 0 -50 -13q-22 -22 -49 -131q-17 -70 -18.5 -97t8.5 -34q9 -9 42 -9h19z" />
    <glyph glyph-name="A" unicode="A" horiz-adv-x="646" 
d="M386 703h74q29 0 39 -8t12 -34l53 -661h-109l-13 198h-267l-109 -198h-117l390 676q10 17 18.5 22t28.5 5zM401 605l-173 -314h208l-20 314h-15z" />
    <glyph glyph-name="B" unicode="B" horiz-adv-x="653" 
d="M484 605h-210l-49 -196h224q42 0 55 13q17 17 34 86q17 72 2 87q-10 10 -56 10zM419 317h-216l-55 -222h229q44 0 54 10q17 17 38 99q22 85 5 102q-11 11 -55 11zM373 0h-361l174 700h327q87 0 119 -32q46 -46 15 -167q-17 -66 -49 -95.5t-92 -42.5v-2q56 -14 74.5 -52
t-0.5 -111q-13 -50 -27 -83.5t-23 -45.5t-22 -25q-44 -44 -135 -44z" />
    <glyph glyph-name="C" unicode="C" horiz-adv-x="653" 
d="M643 470h-107q12 73 11.5 93.5t-9.5 29.5q-12 12 -51 12h-152q-42 0 -58 -16q-29 -29 -81 -239q-24 -96 -32.5 -151.5t-6 -70t10.5 -22.5q11 -11 47 -11h157q43 0 59 16q22 22 53 130h108q-43 -150 -88 -195q-29 -29 -59 -37.5t-84 -8.5h-165q-79 0 -111 32
q-20 20 -28.5 51t-3 100.5t31.5 176.5q26 105 50.5 171t37.5 86t30 37q29 29 59 37.5t84 8.5h160q81 0 116 -33q23 -23 28.5 -64t-7.5 -133z" />
    <glyph glyph-name="D" unicode="D" horiz-adv-x="668" 
d="M186 700h273q64 0 100 -11t62 -37q69 -69 10 -313q-50 -204 -120 -274q-37 -37 -85 -51t-118 -14h-296zM442 606h-168l-127 -512h184q70 0 101 31q23 23 42 68.5t47 156.5q29 114 31 165t-20 70q-13 13 -31.5 17t-58.5 4z" />
    <glyph glyph-name="E" unicode="E" horiz-adv-x="591" 
d="M501 95l-23 -95h-466l174 700h466l-24 -95h-355l-48 -194h292l-24 -95h-292l-54 -221h354z" />
    <glyph glyph-name="F" unicode="F" horiz-adv-x="551" 
d="M604 605h-331l-53 -212h262l-24 -95h-262l-72 -298h-112l174 700h442z" />
    <glyph glyph-name="G" unicode="G" horiz-adv-x="671" 
d="M494 272h-157l24 95h267q-12 -54 -22 -89q-49 -181 -100 -232q-29 -29 -59 -37.5t-84 -8.5h-167q-79 0 -111 32q-20 20 -28.5 51t-3 100.5t31.5 176.5q26 105 50.5 171t37.5 86t30 37q29 29 59 37.5t84 8.5h170q79 0 111 -32q23 -23 27.5 -61.5t-9.5 -126.5h-104
q11 68 10 86.5t-10 27.5q-11 11 -47 11h-159q-42 0 -58 -16q-29 -29 -81 -239q-24 -96 -32.5 -151.5t-6 -70t10.5 -22.5q11 -11 47 -11h160q43 0 59 16q23 23 60 161z" />
    <glyph glyph-name="H" unicode="H" horiz-adv-x="708" 
d="M736 700l-174 -700h-112l78 316h-326l-78 -316h-112l174 700h112l-72 -290h326l72 290h112z" />
    <glyph glyph-name="I" unicode="I" horiz-adv-x="282" 
d="M130 0h-112l174 700h112z" />
    <glyph glyph-name="J" unicode="J" horiz-adv-x="566" 
d="M204 -2h-59q-91 0 -125 34q-25 25 -24.5 67.5t26.5 132.5h106q-9 -34 -13 -51.5t-6.5 -34t-0.5 -25t7 -13.5q13 -13 55 -13h35q55 0 77.5 4.5t34.5 16.5q13 13 25.5 44t34.5 119l105 421h112l-102 -411q-29 -116 -49.5 -163.5t-48.5 -75.5q-31 -31 -74 -41.5t-116 -10.5z
" />
    <glyph glyph-name="K" unicode="K" horiz-adv-x="619" 
d="M567 700h130l-342 -342l193 -358h-121l-165 316h-60l-78 -316h-112l174 700h112l-72 -289h51z" />
    <glyph glyph-name="L" unicode="L" horiz-adv-x="548" 
d="M298 700l-150 -604h330l-23 -96h-443l174 700h112z" />
    <glyph glyph-name="M" unicode="M" horiz-adv-x="881" 
d="M304 45l-18 560h-15l-150 -605h-109l174 700h152q26 0 35 -9.5t10 -35.5l17 -509h15l268 519q11 20 21.5 27.5t30.5 7.5h174l-174 -700h-114l148 595h-15l-301 -564q-11 -20 -18.5 -25.5t-27.5 -5.5h-57q-29 0 -37 8t-9 37z" />
    <glyph glyph-name="N" unicode="N" horiz-adv-x="709" 
d="M737 700l-174 -700h-104q-22 0 -30.5 6.5t-13.5 26.5l-141 523h-15l-138 -556h-109l174 700h119q22 0 30 -6.5t13 -26.5l133 -499h15l132 532h109z" />
    <glyph glyph-name="O" unicode="O" horiz-adv-x="672" 
d="M366 0h-170q-79 0 -111 32q-20 20 -28.5 51t-3 100.5t31.5 176.5q26 105 50.5 171t37.5 86t30 37q29 29 59 37.5t84 8.5h170q79 0 111 -32q20 -20 28.5 -51t3 -100.5t-31.5 -176.5q-26 -105 -50.5 -171t-37.5 -86t-30 -37q-29 -29 -59 -37.5t-84 -8.5zM196 350
q-24 -96 -32.5 -151.5t-6 -70t10.5 -22.5q11 -11 47 -11h162q42 0 58 16q29 29 81 239q24 96 32.5 151.5t6 70t-10.5 22.5q-11 11 -47 11h-162q-42 0 -58 -16q-29 -29 -81 -239z" />
    <glyph glyph-name="P" unicode="P" horiz-adv-x="618" 
d="M632 455q-25 -101 -79 -155q-42 -42 -134 -42h-231l-64 -258h-112l174 700h304q92 0 122 -30q59 -59 20 -215zM456 605h-182l-62 -252h203q47 0 62 15q27 27 48 111q23 91 -2 114q-12 12 -67 12z" />
    <glyph glyph-name="Q" unicode="Q" horiz-adv-x="672" 
d="M401 -108h-103l-5 108h-97q-79 0 -111 32q-20 20 -28.5 51t-3 100.5t31.5 176.5q26 105 50.5 171t37.5 86t30 37q29 29 59 37.5t84 8.5h170q79 0 111 -32q20 -20 28.5 -51t3 -100.5t-31.5 -176.5q-26 -105 -50.5 -171t-37.5 -86t-30 -37q-25 -25 -50.5 -34.5t-63.5 -11.5
zM215 95h73l-8 142h103l6 -142q31 1 46 16q29 29 81 239q24 96 32.5 151.5t6 70t-10.5 22.5q-11 11 -47 11h-162q-42 0 -58 -16q-29 -29 -81 -239q-24 -96 -32.5 -151.5t-6 -70t10.5 -22.5q11 -11 47 -11z" />
    <glyph glyph-name="R" unicode="R" horiz-adv-x="661" 
d="M486 605h-212l-56 -225h226q34 0 46 10q28 23 47 104q19 83 0 102q-9 9 -51 9zM568 191q-32 -150 -36 -191h-112q3 53 35 194q13 59 -6 79q-18 17 -84 17h-169l-72 -290h-112l174 700h330q83 0 113 -30q49 -49 20 -176q-20 -87 -55.5 -121t-102.5 -42v-2q54 -14 72.5 -42
t4.5 -96z" />
    <glyph glyph-name="S" unicode="S" horiz-adv-x="641" 
d="M51 220h106q-25 -106 -13 -118q7 -7 37 -7h190q39 0 51 12q14 14 33 90q15 61 1 75q-10 10 -37 15l-178 35q-45 9 -65.5 17.5t-36.5 24.5q-20 20 -22.5 53t11.5 97q21 99 65 143q43 43 128 43h191q75 0 103 -28q24 -24 26 -64t-16 -123h-108q18 100 7 111q-9 9 -41 9
h-166q-38 0 -50 -12t-31 -84q-15 -59 -1 -73q10 -10 39 -16l178 -36q73 -14 100 -41q22 -22 25 -54.5t-12 -95.5q-18 -70 -30.5 -98.5t-37.5 -53.5q-41 -41 -129 -41h-222q-70 0 -98 28q-21 26 -19.5 69t22.5 123z" />
    <glyph glyph-name="T" unicode="T" horiz-adv-x="586" 
d="M648 605h-216l-150 -605h-112l150 605h-216l24 95h544z" />
    <glyph glyph-name="U" unicode="U" horiz-adv-x="694" 
d="M297 700l-102 -410q-16 -63 -21.5 -100t-3 -52t10.5 -23q17 -17 108 -17h45q55 0 77.5 4.5t34.5 16.5q9 9 15.5 19.5t18 45.5t26.5 96l104 420h112l-101 -409q-29 -116 -49.5 -163t-48.5 -75q-31 -31 -74 -42t-116 -11h-81q-114 0 -156 42q-32 32 -35 82.5t26 177.5
l98 398h112z" />
    <glyph glyph-name="V" unicode="V" horiz-adv-x="622" 
d="M161 39l-40 661h111l29 -592h14l319 592h120l-378 -676q-10 -17 -18.5 -22t-28.5 -5h-77q-29 0 -39 8t-12 34z" />
    <glyph glyph-name="W" unicode="W" horiz-adv-x="931" 
d="M534 702h56q34 0 43.5 -8t9.5 -33l-7 -520h13l243 559h117l-314 -679q-7 -15 -15.5 -19.5t-30.5 -4.5h-62q-35 0 -44.5 6.5t-8.5 31.5l8 516h-13l-253 -528q-7 -16 -16 -21t-30 -5h-64q-35 0 -44.5 6.5t-8.5 31.5l22 665h112l-29 -559h13l250 528q10 20 20.5 26.5
t32.5 6.5z" />
    <glyph glyph-name="X" unicode="X" horiz-adv-x="631" 
d="M442 0l-118 265h-10l-233 -265h-130l325 364l-153 336h120l111 -251h8l221 251h132l-314 -349l158 -351h-117z" />
    <glyph glyph-name="Y" unicode="Y" horiz-adv-x="595" 
d="M701 700l-344 -420l-69 -280h-112l71 286l-140 414h116l97 -310h8l246 310h127z" />
    <glyph glyph-name="Z" unicode="Z" horiz-adv-x="611" 
d="M523 95l-23 -95h-521l17 73l514 532h-362l24 95h506l-17 -73l-515 -532h377z" />
    <glyph glyph-name="bracketleft" unicode="[" horiz-adv-x="452" 
d="M207 700h288l-21 -87h-188l-168 -676h187l-21 -87h-289z" />
    <glyph glyph-name="backslash" unicode="\" horiz-adv-x="494" 
d="M331 -160l-191 870h97l191 -870h-97z" />
    <glyph glyph-name="bracketright" unicode="]" horiz-adv-x="452" 
d="M459 700l-212 -850h-287l21 87h187l168 676h-186l21 87h288z" />
    <glyph glyph-name="asciicircum" unicode="^" horiz-adv-x="524" 
d="M420 478l-65 150l-139 -150h-81v5l205 220h60l95 -220v-5h-75z" />
    <glyph glyph-name="underscore" unicode="_" horiz-adv-x="488" 
d="M-109 -149l21 84h497l-21 -84h-497z" />
    <glyph glyph-name="grave" unicode="`" horiz-adv-x="494" 
d="M447 608h-94l-132 107v5h161l65 -107v-5z" />
    <glyph glyph-name="a" unicode="a" horiz-adv-x="560" 
d="M422 0h-95l16 70q-64 -43 -98 -57t-69 -14h-48q-57 0 -85 28q-36 36 -13 135q16 68 49 101q26 26 68.5 37t122.5 11q83 0 127 -16l15 61q17 72 2 87q-11 11 -41 11h-94q-36 0 -47 -11q-10 -10 -27 -69h-100q26 98 56 128q38 38 107 38h146q56 0 87 -31q40 -40 14 -142z
M216 86q30 0 54.5 8.5t85.5 37.5l25 103h-133q-47 0 -65.5 -3.5t-29.5 -14.5q-12 -12 -22 -53q-14 -57 -1 -70q8 -8 39 -8h47z" />
    <glyph glyph-name="b" unicode="b" horiz-adv-x="587" 
d="M308 -1h-46q-30 0 -54 13t-81 56l-17 -68h-104l179 720h104l-62 -249q65 46 93.5 58t66.5 12h47q66 0 95 -29q25 -25 26 -73.5t-27 -169.5q-27 -111 -46 -157.5t-44 -71.5q-41 -41 -130 -41zM344 449q-31 0 -52.5 -7t-80.5 -35l-70 -281q60 -35 98 -35h66q45 0 62 17
q23 23 58 165q22 90 25 121.5t-9 42.5q-12 12 -52 12h-45z" />
    <glyph glyph-name="c" unicode="c" horiz-adv-x="541" 
d="M300 0h-136q-66 0 -97 31q-28 28 -30.5 77.5t25.5 171.5q26 109 44.5 151.5t43.5 67.5q41 41 130 41h120q68 0 98 -30q22 -22 24 -57t-14 -103h-99q15 77 3 89q-9 9 -43 9h-100q-38 0 -51 -13q-18 -18 -54 -165q-37 -149 -19 -167q11 -11 46 -11h104q32 0 43 11
q15 15 35 94h101q-20 -78 -34 -109t-37 -54q-34 -34 -103 -34z" />
    <glyph glyph-name="d" unicode="d" horiz-adv-x="587" 
d="M279 541h46q29 0 54 -13t81 -56l63 248h104l-181 -720h-102l17 70q-66 -47 -94.5 -59t-66.5 -12h-47q-66 0 -95 29q-25 25 -26 73.5t27 169.5q27 111 46 157.5t44 71.5q41 41 130 41zM243 91q31 0 52 7t80 35l70 280q-60 36 -97 36h-66q-45 0 -62 -17q-23 -23 -58 -165
q-22 -90 -25 -121.5t9 -42.5q12 -12 52 -12h45z" />
    <glyph glyph-name="e" unicode="e" horiz-adv-x="559" 
d="M300 0h-136q-66 0 -98 32q-27 27 -29 76.5t25 171.5q26 109 44.5 151.5t43.5 67.5q41 41 130 41h120q66 0 98 -32q28 -28 29.5 -79.5t-30.5 -178.5q-3 -14 -16 -14h-326q-27 -119 -10 -136q10 -10 45 -10h108q38 0 50 12t27 66h101q-28 -99 -61 -132q-37 -36 -115 -36z
M217 437q-16 -16 -42 -119h236q24 106 8 122q-10 10 -45 10h-106q-38 0 -51 -13z" />
    <glyph glyph-name="f" unicode="f" horiz-adv-x="354" 
d="M150 0h-104l111 450h-89l23 90h89l5 20q22 89 53 122q22 22 46 30t65 8h88l-23 -88h-59q-31 0 -42 -11q-14 -14 -25 -63l-4 -18h117l-23 -90h-116z" />
    <glyph glyph-name="g" unicode="g" horiz-adv-x="587" 
d="M5 -16h100q-6 -32 3 -41q8 -8 34 -8h126q39 0 49 9q14 12 28 68l28 113q-65 -47 -93.5 -58.5t-66.5 -11.5h-36q-66 0 -96 30q-28 28 -32.5 74t19.5 150q23 88 40.5 128t40.5 63q41 41 130 41h45q29 0 53.5 -13t81.5 -57l18 69h104l-129 -514q-18 -71 -31 -99.5t-37 -47.5
q-37 -29 -111 -29h-172q-54 0 -80 26q-31 31 -16 108zM169 297q-29 -116 -7 -138q13 -13 53 -13h41q28 0 47.5 6.5t70.5 29.5q10 4 15 7l56 224q-63 37 -98 37h-65q-45 0 -62 -17q-22 -22 -51 -136z" />
    <glyph glyph-name="h" unicode="h" 
d="M448 0h-104l94 374q11 45 -5 61q-14 14 -50 14h-39q-29 0 -53 -7.5t-80 -33.5l-101 -408h-104l179 720h104l-62 -250q71 47 96.5 59t59.5 12h59q50 0 81 -31q43 -43 17 -145z" />
    <glyph glyph-name="i" unicode="i" horiz-adv-x="250" 
d="M300 730l-28 -111h-118l28 111h118zM245 540l-136 -540h-104l136 540h104z" />
    <glyph glyph-name="j" unicode="j" horiz-adv-x="263" 
d="M313 730l-28 -111h-118l28 111h118zM154 540h104l-132 -528q-24 -95 -55 -126q-38 -38 -116 -38q-34 0 -64 6l21 83h49q28 0 38 10t18 42z" />
    <glyph glyph-name="k" unicode="k" horiz-adv-x="522" 
d="M110 0h-104l179 720h104l-100 -402h36l229 222h125l-283 -272l155 -268h-116l-130 232h-37z" />
    <glyph glyph-name="l" unicode="l" horiz-adv-x="250" 
d="M110 0h-104l179 720h104z" />
    <glyph glyph-name="m" unicode="m" horiz-adv-x="883" 
d="M746 0h-104l94 374q11 45 -5 61q-14 14 -50 14h-19q-30 0 -53.5 -7.5t-80.5 -34.5q-4 -28 -8 -42l-92 -365h-104l94 374q11 45 -5 61q-14 14 -50 14h-19q-29 0 -53 -7.5t-78 -32.5l-103 -409h-104l136 540h102l-18 -71q72 48 97.5 60t59.5 12h39q50 0 81 -31
q21 -21 25 -51q83 56 110.5 69t62.5 13h39q50 0 81 -31q43 -43 17 -145z" />
    <glyph glyph-name="n" unicode="n" 
d="M110 0h-104l136 540h102l-18 -71q72 48 97.5 60t59.5 12h59q50 0 81 -31q43 -43 17 -145l-92 -365h-104l94 374q11 45 -5 61q-14 14 -50 14h-39q-29 0 -53 -7.5t-78 -32.5z" />
    <glyph glyph-name="o" unicode="o" horiz-adv-x="573" 
d="M511 260q-26 -109 -44.5 -151.5t-43.5 -67.5q-41 -41 -130 -41h-129q-66 0 -98 32q-27 27 -29 76.5t25 171.5q26 109 44.5 151.5t43.5 67.5q41 41 130 41h129q66 0 98 -32q27 -27 29.5 -76.5t-25.5 -171.5zM164 270q-37 -150 -18 -169q10 -10 45 -10h113q38 0 51 13
q17 17 54 166q37 150 18 169q-10 10 -45 10h-113q-38 0 -51 -13q-17 -17 -54 -166z" />
    <glyph glyph-name="p" unicode="p" horiz-adv-x="587" 
d="M307 -1h-45q-30 0 -55 13t-81 56l-54 -218h-104l173 690h102l-18 -70q67 47 95.5 59t66.5 12h47q66 0 95 -29q25 -25 26 -73.5t-27 -169.5q-27 -111 -46.5 -157.5t-44.5 -71.5q-41 -41 -130 -41zM344 449q-31 0 -52 -7t-81 -35l-70 -281q58 -35 98 -35h66q45 0 62 17
q23 23 58 165q22 90 25 121.5t-9 42.5q-12 12 -52 12h-45z" />
    <glyph glyph-name="q" unicode="q" horiz-adv-x="587" 
d="M581 540l-172 -690h-104l54 218q-64 -46 -92.5 -57.5t-66.5 -11.5h-47q-66 0 -95 29q-25 25 -26 73.5t27 169.5q27 111 46 157.5t44 71.5q41 41 130 41h46q29 0 53.5 -13t81.5 -56l17 68h104zM243 91q31 0 52 7t80 35l70 280q-60 36 -97 36h-66q-45 0 -62 -17
q-23 -23 -58 -165q-22 -90 -25 -121.5t9 -42.5q12 -12 52 -12h45z" />
    <glyph glyph-name="r" unicode="r" horiz-adv-x="378" 
d="M109 0h-104l136 540h102l-18 -73q52 43 78.5 58.5t55.5 15.5h59l-27 -107h-61q-60 0 -117 -21z" />
    <glyph glyph-name="s" unicode="s" horiz-adv-x="532" 
d="M32 170h92q-14 -65 -5 -75q9 -9 35 -9h141q29 0 37 8q12 12 23 57q10 40 0 50q-8 8 -29 12l-138 28q-65 12 -87 34q-31 31 -8 126q17 72 52 107q32 32 96 32h172q47 0 74 -27q36 -36 10 -139h-94q13 57 1 69q-11 11 -40 11h-118q-28 0 -37 -9q-10 -10 -21 -52
q-10 -41 0 -51q9 -9 29 -12l138 -26q65 -12 87 -34q30 -30 7 -127q-18 -77 -53 -112q-31 -31 -95 -31h-197q-45 0 -70 25q-35 35 -2 145z" />
    <glyph glyph-name="t" unicode="t" horiz-adv-x="381" 
d="M261 450l-80 -317q-6 -25 3 -34q8 -8 36 -8h79l-17 -69l-66 -17q-38 -9 -65 -9q-41 0 -65 24q-31 31 -12 105l82 325h-93l22 90h94l34 134h104l-34 -134h125l-22 -90h-125z" />
    <glyph glyph-name="u" unicode="u" 
d="M475 540h104l-136 -540h-102l17 70q-71 -47 -97 -59t-59 -12h-59q-50 0 -81 31q-43 43 -17 145l92 365h104l-94 -374q-11 -45 5 -61q14 -14 50 -14h39q29 0 53 7.5t78 32.5z" />
    <glyph glyph-name="v" unicode="v" horiz-adv-x="495" 
d="M439 540h108l-292 -516q-16 -26 -43 -26h-55q-39 0 -42 38l-36 504h101l23 -419h10z" />
    <glyph glyph-name="w" unicode="w" horiz-adv-x="750" 
d="M404 542h58q21 0 30.5 -8t9.5 -28l1 -389h10l175 423h107l-233 -514q-13 -28 -43 -28h-69q-24 0 -33 7.5t-8 30.5l5 376h-8l-184 -386q-14 -28 -43 -28h-70q-24 0 -33 7.5t-8 30.5l21 504h100l-26 -423h10l187 397q13 28 44 28z" />
    <glyph glyph-name="x" unicode="x" horiz-adv-x="515" 
d="M68 0h-122l249 280l-126 260h112l89 -188h7l167 188h124l-250 -274l128 -266h-112l-90 192h-7z" />
    <glyph glyph-name="y" unicode="y" horiz-adv-x="536" 
d="M82 540h109l48 -391h6l220 391h117l-374 -625q-40 -67 -113 -67q-36 0 -106 7l22 86h92q15 0 27 18l29 47z" />
    <glyph glyph-name="z" unicode="z" horiz-adv-x="491" 
d="M409 92l-23 -92h-418l14 64l375 384h-263l23 92h408l-13 -58l-381 -390h278z" />
    <glyph glyph-name="braceleft" unicode="{" horiz-adv-x="454" 
d="M229 545q7 31 34.5 55.5t143.5 109.5h79q-92 -88 -119 -117.5t-32 -46.5q-6 -23 -12.5 -84.5t-11.5 -81.5q-12 -47 -38 -68t-98 -36v-2q88 -23 88 -82q0 -26 -30 -96.5t-30 -86.5q0 -56 63 -169h-64q-103 118 -103 169q0 29 30.5 101.5t30.5 88.5q0 23 -40 33
q-22 5 -68 11l16 64q57 6 82 13q24 7 36 16.5t17 31.5q3 13 11 80.5t15 96.5z" />
    <glyph glyph-name="bar" unicode="|" horiz-adv-x="343" 
d="M112 -160h-95l234 940h95z" />
    <glyph glyph-name="braceright" unicode="}" horiz-adv-x="454" 
d="M253 182q-3 -13 -11 -80.5t-15 -96.5q-7 -31 -34.5 -55.5t-143.5 -109.5h-79q92 88 119 117.5t32 46.5q6 23 12.5 84.5t11.5 81.5q12 47 38 68t98 36v2q-88 23 -88 82q0 26 30 96.5t30 86.5q0 56 -63 169h64q103 -118 103 -169q0 -29 -30.5 -101.5t-30.5 -88.5
q0 -23 40 -33q22 -5 68 -11l-16 -64q-57 -6 -82 -13q-24 -7 -36 -16.5t-17 -31.5z" />
    <glyph glyph-name="asciitilde" unicode="~" horiz-adv-x="434" 
d="M64 255l15 63q9 35 27 50q17 13 41 13h10q31 0 78 -20l67 -28l40 48h53l-16 -63q-9 -36 -26 -50q-17 -13 -41 -13h-10q-30 0 -78 20l-65 29l-42 -49h-53z" />
    <glyph glyph-name="uni00A0" unicode="&#xa0;" horiz-adv-x="165" 
 />
    <glyph glyph-name="exclamdown" unicode="&#xa1;" horiz-adv-x="332" 
d="M190 480h45l-60 -443l-10 -37h-134l8 36zM303 566h-127l32 134h127z" />
    <glyph glyph-name="cent" unicode="&#xa2;" horiz-adv-x="538" 
d="M251 -2h-85l23 93h-5q-66 0 -97 31q-28 28 -30.5 75.5t23.5 165.5q25 103 43.5 145t42.5 66q41 41 130 41h24l22 87h85l-23 -87h12q68 0 98 -30q22 -22 24 -57t-14 -103h-97q15 81 5 91q-9 9 -43 9h-11l-85 -344h24q32 0 43 11q15 15 35 96h99q-20 -78 -34 -109t-37 -54
q-34 -34 -103 -34h-46zM180 354q-35 -145 -18 -162q11 -11 46 -11h7l86 344h-18q-38 0 -51 -13q-17 -17 -52 -158z" />
    <glyph glyph-name="sterling" unicode="&#xa3;" horiz-adv-x="656" 
d="M551 95l-23 -95h-543l23 95h92l46 186h-92l23 91h92l27 105q34 133 77 176q49 49 140 49h109q82 0 112 -30q27 -27 29 -70t-19 -127h-107q25 100 6 119q-12 12 -53 12h-84q-39 0 -55 -16q-24 -24 -45 -113l-26 -105h197l-23 -91h-197l-46 -186h340z" />
    <glyph glyph-name="yen" unicode="&#xa5;" horiz-adv-x="660" 
d="M721 700l-292 -369h141l-23 -92h-170l-59 -239h-112l59 239h-173l23 92h148l-116 369h116l89 -308h8l234 308h127z" />
    <glyph glyph-name="section" unicode="&#xa7;" horiz-adv-x="644" 
d="M106 160h101q-10 -54 1 -65q8 -8 40 -8h53q40 0 52 12q7 7 18 43q10 33 -1 44q-7 7 -41 14l-121 24q-61 12 -84 20t-38 23q-35 35 -16 112q15 66 45 96q28 28 84 32q0 21 9 54q15 64 50 99q41 41 137 41h76q73 0 96 -23q18 -18 20.5 -47.5t-10.5 -90.5h-101q10 54 -1 65
q-8 8 -40 8h-53q-40 0 -52 -12q-7 -7 -18 -43q-10 -34 -1 -43q8 -8 43 -15l121 -25q60 -12 83.5 -20t37.5 -22q35 -35 17 -112q-15 -66 -45 -96q-27 -27 -85 -32q0 -20 -8 -54q-15 -64 -50 -99q-41 -41 -137 -41h-76q-73 0 -95 22q-20 20 -22 49.5t11 89.5zM237 315l199 -42
q44 -10 60 6q10 10 16 31q11 39 -3 53q-11 11 -63 22l-199 42q-44 10 -60 -6q-9 -9 -16 -31q-12 -38 4 -54q10 -10 62 -21z" />
    <glyph glyph-name="dieresis" unicode="&#xa8;" horiz-adv-x="494" 
d="M184 610l27 110h111l-27 -110h-111zM369 610l27 110h111l-27 -110h-111z" />
    <glyph glyph-name="copyright" unicode="&#xa9;" horiz-adv-x="788" 
d="M488 297h63q-24 -82 -49 -107t-78 -25h-94q-43 0 -61 18q-17 17 -18.5 51t18.5 129q32 129 65 162q16 16 32 20.5t47 4.5h91q46 0 64 -18q25 -25 11 -108h-62q11 56 2 65q-6 6 -28 6h-81q-22 0 -31 -9q-18 -18 -46 -129q-28 -116 -14 -130q7 -7 26 -7h83q23 0 32 9
q13 13 28 68zM142 350q-51 -227 7 -285q19 -19 47 -27.5t95 -8.5h113q67 0 101 9.5t61 36.5q76 76 120 275q51 227 -7 285q-19 19 -47 27.5t-95 8.5h-113q-67 0 -101 -9.5t-61 -36.5q-76 -76 -120 -275zM719 350q-49 -212 -123 -286q-34 -34 -76 -49t-116 -15h-117
q-75 0 -107.5 11t-54.5 33q-70 70 -16 306q49 212 123 286q34 34 76 49t116 15h117q75 0 107.5 -11t54.5 -33q70 -70 16 -306z" />
    <glyph glyph-name="ordfeminine" unicode="&#xaa;" horiz-adv-x="493" 
d="M417 315h-71l10 45q-40 -28 -60.5 -37t-43.5 -9h-38q-54 0 -75 21q-26 26 -9 96q12 52 39 79q34 34 139 34q56 0 89 -12l9 36q13 50 5 58q-7 7 -34 7h-75q-19 0 -25 -6q-5 -5 -16 -46h-77q19 71 41 93q26 26 78 26h96q58 0 79 -21q14 -14 15 -36t-11 -70zM66 166l15 66
h317l-16 -66h-316zM269 381q37 0 98 30l18 73h-96q-37 0 -47.5 -1.5t-16.5 -7.5q-9 -9 -17 -42q-9 -36 0 -45q7 -7 32 -7h29z" />
    <glyph glyph-name="guillemotleft" unicode="&#xab;" horiz-adv-x="638" 
d="M420 86l-111 163l13 64l177 141h125l-214 -182l124 -186h-114zM172 86l-111 163l13 64l177 141h125l-214 -182l124 -186h-114z" />
    <glyph glyph-name="registered" unicode="&#xae;" horiz-adv-x="416" 
d="M326 406h-36q2 22 10 56q3 19 -2 24t-26 5h-49l-20 -85h-36l52 211h102q25 0 34 -9q15 -15 6 -53q-6 -27 -16.5 -37t-31.5 -12v-1q16 -4 22 -12.5t2 -28.5q-10 -49 -11 -58zM309 586h-62l-16 -65h66q11 0 15 4q8 8 13 30q5 23 0 28q-3 3 -16 3zM438 508
q-27 -117 -68 -158q-20 -20 -42.5 -28t-63.5 -8h-65q-67 0 -92 25q-41 41 -11 167q27 117 68 158q20 20 42.5 28t63.5 8h65q67 0 92 -25q41 -41 11 -167zM120 507q-28 -121 4 -153q19 -19 75 -19h67q35 0 53.5 6t34.5 22q36 36 60 144q28 121 -4 153q-19 19 -75 19h-67
q-35 0 -53.5 -6t-34.5 -22q-36 -36 -60 -144z" />
    <glyph glyph-name="macron" unicode="&#xaf;" horiz-adv-x="494" 
d="M182 610l19 85h302l-19 -85h-302z" />
    <glyph glyph-name="degree" unicode="&#xb0;" horiz-adv-x="426" 
d="M209 533q-19 -77 -7 -89q7 -7 34 -7h46q26 0 35 9q14 14 32 87q19 77 7 89q-7 7 -34 7h-46q-26 0 -35 -9q-14 -14 -32 -87zM426 526q-15 -59 -26.5 -83t-31.5 -44q-33 -33 -93 -33h-63q-51 0 -73 22q-19 19 -21 51.5t14 100.5q15 59 26.5 83t31.5 44q33 33 93 33h63
q51 0 73 -22q19 -19 21 -51.5t-14 -100.5z" />
    <glyph glyph-name="plusminus" unicode="&#xb1;" horiz-adv-x="508" 
d="M392 635l-38 -152h151l-23 -92h-151l-38 -152h-94l38 152h-151l23 92h151l38 152h94zM11 91l24 92h396l-24 -92h-396z" />
    <glyph glyph-name="acute" unicode="&#xb4;" horiz-adv-x="494" 
d="M216 608v5l113 107h160v-5l-169 -107h-104z" />
    <glyph glyph-name="paragraph" unicode="&#xb6;" horiz-adv-x="551" 
d="M357 258h-114q-92 0 -122 30q-59 59 -20 215q25 101 79 155q42 42 134 42h265l-174 -700h-112z" />
    <glyph glyph-name="periodcentered" unicode="&#xb7;" horiz-adv-x="283" 
d="M106 386h128l-33 -134h-128z" />
    <glyph glyph-name="cedilla" unicode="&#xb8;" horiz-adv-x="494" 
d="M151 -90h-40l16 60h47q51 0 66 -15q19 -19 8 -70q-9 -38 -30 -59q-20 -20 -73 -20h-76l-47 40l5 20h119q16 0 21 4q5 3 8 17q3 13 -1 18t-23 5z" />
    <glyph glyph-name="ordmasculine" unicode="&#xba;" horiz-adv-x="532" 
d="M500 509q-17 -72 -32 -105t-36 -54q-35 -35 -101 -35h-89q-60 0 -83 23q-38 39 -7 168q17 72 32 105t36 54q35 35 101 35h89q60 0 83 -23q38 -39 7 -168zM70 165l16 67h343l-16 -67h-343zM238 506q-24 -94 -9 -109q9 -9 39 -9h65q30 0 41 11q16 16 40 110t9 109
q-9 9 -39 9h-65q-30 0 -41 -11q-16 -16 -40 -110z" />
    <glyph glyph-name="guillemotright" unicode="&#xbb;" horiz-adv-x="638" 
d="M262 86l214 181l-124 187h114l111 -163l-13 -64l-177 -141h-125zM14 86l214 181l-124 187h114l111 -163l-13 -64l-177 -141h-125z" />
    <glyph glyph-name="questiondown" unicode="&#xbf;" horiz-adv-x="536" 
d="M435 567h-125l33 133h125zM376 222h110q-22 -86 -38.5 -124t-37.5 -59q-39 -39 -129 -39h-129q-85 0 -116 31q-22 22 -24 57t12 92q15 63 28 90t35 49q27 27 132 69q47 19 64 36q12 12 26 56h83l-7 -29q-19 -77 -44 -102q-26 -26 -108 -58q-52 -20 -68 -36
q-15 -15 -29 -71q-16 -64 -3 -77q10 -10 51 -10h103q37 0 49 12t40 113z" />
    <glyph glyph-name="Agrave" unicode="&#xc0;" horiz-adv-x="646" 
d="M386 703h74q29 0 39 -8t12 -34l53 -661h-109l-13 198h-267l-109 -198h-117l390 676q10 17 18.5 22t28.5 5zM401 605l-173 -314h208l-20 314h-15zM503 758h-94l-132 107v5h161l65 -107v-5z" />
    <glyph glyph-name="Aacute" unicode="&#xc1;" horiz-adv-x="646" 
d="M386 703h74q29 0 39 -8t12 -34l53 -661h-109l-13 198h-267l-109 -198h-117l390 676q10 17 18.5 22t28.5 5zM401 605l-173 -314h208l-20 314h-15zM376 758v5l113 107h160v-5l-169 -107h-104z" />
    <glyph glyph-name="Acircumflex" unicode="&#xc2;" horiz-adv-x="646" 
d="M386 703h74q29 0 39 -8t12 -34l53 -661h-109l-13 198h-267l-109 -198h-117l390 676q10 17 18.5 22t28.5 5zM401 605l-173 -314h208l-20 314h-15zM518 758l-59 52l-89 -52h-86v5l129 117h120l71 -117v-5h-86z" />
    <glyph glyph-name="Atilde" unicode="&#xc3;" horiz-adv-x="646" 
d="M386 703h74q29 0 39 -8t12 -34l53 -661h-109l-13 198h-267l-109 -198h-117l390 676q10 17 18.5 22t28.5 5zM401 605l-173 -314h208l-20 314h-15zM297 758l15 63q9 35 27 50q17 13 41 13h10q30 0 78 -20l67 -28l40 48h53l-16 -63q-9 -36 -26 -50q-17 -13 -41 -13h-10
q-31 0 -78 20l-65 29l-42 -49h-53z" />
    <glyph glyph-name="Adieresis" unicode="&#xc4;" horiz-adv-x="646" 
d="M386 703h74q29 0 39 -8t12 -34l53 -661h-109l-13 198h-267l-109 -198h-117l390 676q10 17 18.5 22t28.5 5zM401 605l-173 -314h208l-20 314h-15zM300 760l27 110h111l-27 -110h-111zM485 760l27 110h111l-27 -110h-111z" />
    <glyph glyph-name="Aring" unicode="&#xc5;" horiz-adv-x="646" 
d="M572 745q-9 -41 -34 -66q-12 -12 -27 -18l53 -661h-109l-13 198h-267l-109 -198h-117l383 665q-6 4 -8 7q-28 28 -14 87q10 42 35 67q26 26 80 26h66q47 0 69 -22q26 -26 12 -85zM401 605l-173 -314h208l-20 314h-15zM406 708h55q22 0 30 8q9 9 15 35q7 30 -2 39
q-6 6 -28 6h-55q-22 0 -29 -7q-10 -10 -16 -36q-7 -30 2 -39q6 -6 28 -6z" />
    <glyph glyph-name="AE" unicode="&#xc6;" horiz-adv-x="957" 
d="M-70 0l513 661q18 23 31.5 31t39.5 8h504l-24 -95h-355l-48 -194h292l-24 -95h-292l-54 -221h354l-23 -95h-466l54 217h-213l-166 -217h-123zM520 610l-230 -300h165l75 300h-10z" />
    <glyph glyph-name="Ccedilla" unicode="&#xc7;" horiz-adv-x="653" 
d="M643 470h-107q12 73 11.5 93.5t-9.5 29.5q-12 12 -51 12h-152q-42 0 -58 -16q-29 -29 -81 -239q-24 -96 -32.5 -151.5t-6 -70t10.5 -22.5q11 -11 47 -11h157q43 0 59 16q22 22 53 130h108q-43 -150 -88 -195q-29 -29 -59 -37.5t-84 -8.5h-165q-79 0 -111 32
q-20 20 -28.5 51t-3 100.5t31.5 176.5q26 105 50.5 171t37.5 86t30 37q29 29 59 37.5t84 8.5h160q81 0 116 -33q23 -23 28.5 -64t-7.5 -133zM236 -90h-40l16 60h47q51 0 66 -15q19 -19 8 -70q-9 -38 -30 -59q-20 -20 -73 -20h-76l-47 40l5 20h119q16 0 21 4q5 3 8 17
q3 13 -1 18t-23 5z" />
    <glyph glyph-name="Egrave" unicode="&#xc8;" horiz-adv-x="591" 
d="M501 95l-23 -95h-466l174 700h466l-24 -95h-355l-48 -194h292l-24 -95h-292l-54 -221h354zM481 758h-94l-132 107v5h161l65 -107v-5z" />
    <glyph glyph-name="Eacute" unicode="&#xc9;" horiz-adv-x="591" 
d="M501 95l-23 -95h-466l174 700h466l-24 -95h-355l-48 -194h292l-24 -95h-292l-54 -221h354zM354 758v5l113 107h160v-5l-169 -107h-104z" />
    <glyph glyph-name="Ecircumflex" unicode="&#xca;" horiz-adv-x="591" 
d="M501 95l-23 -95h-466l174 700h466l-24 -95h-355l-48 -194h292l-24 -95h-292l-54 -221h354zM495 758l-59 52l-89 -52h-86v5l129 117h120l71 -117v-5h-86z" />
    <glyph glyph-name="Edieresis" unicode="&#xcb;" horiz-adv-x="591" 
d="M501 95l-23 -95h-466l174 700h466l-24 -95h-355l-48 -194h292l-24 -95h-292l-54 -221h354zM277 760l27 110h111l-27 -110h-111zM462 760l27 110h111l-27 -110h-111z" />
    <glyph glyph-name="Igrave" unicode="&#xcc;" horiz-adv-x="282" 
d="M130 0h-112l174 700h112zM320 758h-94l-132 107v5h161l65 -107v-5z" />
    <glyph glyph-name="Iacute" unicode="&#xcd;" horiz-adv-x="282" 
d="M130 0h-112l174 700h112zM193 758v5l113 107h160v-5l-169 -107h-104z" />
    <glyph glyph-name="Icircumflex" unicode="&#xce;" horiz-adv-x="282" 
d="M130 0h-112l174 700h112zM334 758l-59 52l-89 -52h-86v5l129 117h120l71 -117v-5h-86z" />
    <glyph glyph-name="Idieresis" unicode="&#xcf;" horiz-adv-x="282" 
d="M130 0h-112l174 700h112zM116 760l27 110h111l-27 -110h-111zM301 760l27 110h111l-27 -110h-111z" />
    <glyph glyph-name="Eth" unicode="&#xd0;" horiz-adv-x="678" 
d="M196 700h273q64 0 100 -11t62 -37q69 -69 10 -313q-50 -204 -120 -274q-37 -37 -85 -51t-118 -14h-296l76 307h-94l23 92h94zM452 606h-168l-51 -207h154l-23 -92h-154l-53 -213h184q70 0 101 31q23 23 42 68.5t47 156.5q29 114 31 165t-20 70q-13 13 -31.5 17t-58.5 4z
" />
    <glyph glyph-name="Ntilde" unicode="&#xd1;" horiz-adv-x="709" 
d="M737 700l-174 -700h-104q-22 0 -30.5 6.5t-13.5 26.5l-141 523h-15l-138 -556h-109l174 700h119q22 0 30 -6.5t13 -26.5l133 -499h15l132 532h109zM326 758l15 63q9 35 27 50q17 13 41 13h10q31 0 78 -20l67 -28l40 48h53l-16 -63q-9 -36 -26 -50q-17 -13 -41 -13h-10
q-30 0 -78 20l-65 29l-42 -49h-53z" />
    <glyph glyph-name="Ograve" unicode="&#xd2;" horiz-adv-x="672" 
d="M366 0h-170q-79 0 -111 32q-20 20 -28.5 51t-3 100.5t31.5 176.5q26 105 50.5 171t37.5 86t30 37q29 29 59 37.5t84 8.5h170q79 0 111 -32q20 -20 28.5 -51t3 -100.5t-31.5 -176.5q-26 -105 -50.5 -171t-37.5 -86t-30 -37q-29 -29 -59 -37.5t-84 -8.5zM196 350
q-24 -96 -32.5 -151.5t-6 -70t10.5 -22.5q11 -11 47 -11h162q42 0 58 16q29 29 81 239q24 96 32.5 151.5t6 70t-10.5 22.5q-11 11 -47 11h-162q-42 0 -58 -16q-29 -29 -81 -239zM515 758h-94l-132 107v5h161l65 -107v-5z" />
    <glyph glyph-name="Oacute" unicode="&#xd3;" horiz-adv-x="672" 
d="M366 0h-170q-79 0 -111 32q-20 20 -28.5 51t-3 100.5t31.5 176.5q26 105 50.5 171t37.5 86t30 37q29 29 59 37.5t84 8.5h170q79 0 111 -32q20 -20 28.5 -51t3 -100.5t-31.5 -176.5q-26 -105 -50.5 -171t-37.5 -86t-30 -37q-29 -29 -59 -37.5t-84 -8.5zM196 350
q-24 -96 -32.5 -151.5t-6 -70t10.5 -22.5q11 -11 47 -11h162q42 0 58 16q29 29 81 239q24 96 32.5 151.5t6 70t-10.5 22.5q-11 11 -47 11h-162q-42 0 -58 -16q-29 -29 -81 -239zM388 758v5l113 107h160v-5l-169 -107h-104z" />
    <glyph glyph-name="Ocircumflex" unicode="&#xd4;" horiz-adv-x="672" 
d="M366 0h-170q-79 0 -111 32q-20 20 -28.5 51t-3 100.5t31.5 176.5q26 105 50.5 171t37.5 86t30 37q29 29 59 37.5t84 8.5h170q79 0 111 -32q20 -20 28.5 -51t3 -100.5t-31.5 -176.5q-26 -105 -50.5 -171t-37.5 -86t-30 -37q-29 -29 -59 -37.5t-84 -8.5zM196 350
q-24 -96 -32.5 -151.5t-6 -70t10.5 -22.5q11 -11 47 -11h162q42 0 58 16q29 29 81 239q24 96 32.5 151.5t6 70t-10.5 22.5q-11 11 -47 11h-162q-42 0 -58 -16q-29 -29 -81 -239zM529 758l-59 52l-89 -52h-86v5l129 117h120l71 -117v-5h-86z" />
    <glyph glyph-name="Otilde" unicode="&#xd5;" horiz-adv-x="672" 
d="M366 0h-170q-79 0 -111 32q-20 20 -28.5 51t-3 100.5t31.5 176.5q26 105 50.5 171t37.5 86t30 37q29 29 59 37.5t84 8.5h170q79 0 111 -32q20 -20 28.5 -51t3 -100.5t-31.5 -176.5q-26 -105 -50.5 -171t-37.5 -86t-30 -37q-29 -29 -59 -37.5t-84 -8.5zM196 350
q-24 -96 -32.5 -151.5t-6 -70t10.5 -22.5q11 -11 47 -11h162q42 0 58 16q29 29 81 239q24 96 32.5 151.5t6 70t-10.5 22.5q-11 11 -47 11h-162q-42 0 -58 -16q-29 -29 -81 -239zM308 758l15 63q9 35 27 50q17 13 41 13h10q31 0 78 -20l67 -28l40 48h53l-16 -63
q-9 -36 -26 -50q-17 -13 -41 -13h-10q-30 0 -78 20l-65 29l-42 -49h-53z" />
    <glyph glyph-name="Odieresis" unicode="&#xd6;" horiz-adv-x="672" 
d="M366 0h-170q-79 0 -111 32q-20 20 -28.5 51t-3 100.5t31.5 176.5q26 105 50.5 171t37.5 86t30 37q29 29 59 37.5t84 8.5h170q79 0 111 -32q20 -20 28.5 -51t3 -100.5t-31.5 -176.5q-26 -105 -50.5 -171t-37.5 -86t-30 -37q-29 -29 -59 -37.5t-84 -8.5zM196 350
q-24 -96 -32.5 -151.5t-6 -70t10.5 -22.5q11 -11 47 -11h162q42 0 58 16q29 29 81 239q24 96 32.5 151.5t6 70t-10.5 22.5q-11 11 -47 11h-162q-42 0 -58 -16q-29 -29 -81 -239zM311 760l27 110h111l-27 -110h-111zM496 760l27 110h111l-27 -110h-111z" />
    <glyph glyph-name="multiply" unicode="&#xd7;" horiz-adv-x="508" 
d="M195 551l95 -124l144 117l53 -70l-145 -117l93 -124l-74 -58l-93 124l-145 -117l-53 70l147 117l-96 124z" />
    <glyph glyph-name="Oslash" unicode="&#xd8;" horiz-adv-x="672" 
d="M366 0h-170q-19 0 -27 1l-38 -54h-108l61 86q-20 20 -28.5 51t-2.5 100.5t32 175.5q26 105 50.5 171t37.5 86t30 37q29 29 59 37.5t84 8.5h170q26 0 45 -3l39 56h108l-70 -98q49 -69 -11 -315q-26 -105 -50.5 -171t-37.5 -86t-30 -37q-29 -29 -59 -37.5t-84 -8.5z
M196 350q-45 -178 -38 -222l339 477h-162q-42 0 -58 -16q-29 -29 -81 -239zM516 350q35 140 38 196l-319 -451h142q42 0 58 16q29 29 81 239z" />
    <glyph glyph-name="Ugrave" unicode="&#xd9;" horiz-adv-x="694" 
d="M297 700l-102 -410q-16 -63 -21.5 -100t-3 -52t10.5 -23q17 -17 108 -17h45q55 0 77.5 4.5t34.5 16.5q9 9 15.5 19.5t18 45.5t26.5 96l104 420h112l-101 -409q-29 -116 -49.5 -163t-48.5 -75q-31 -31 -74 -42t-116 -11h-81q-114 0 -156 42q-32 32 -35 82.5t26 177.5
l98 398h112zM518 758h-94l-132 107v5h161l65 -107v-5z" />
    <glyph glyph-name="Uacute" unicode="&#xda;" horiz-adv-x="694" 
d="M297 700l-102 -410q-16 -63 -21.5 -100t-3 -52t10.5 -23q17 -17 108 -17h45q55 0 77.5 4.5t34.5 16.5q9 9 15.5 19.5t18 45.5t26.5 96l104 420h112l-101 -409q-29 -116 -49.5 -163t-48.5 -75q-31 -31 -74 -42t-116 -11h-81q-114 0 -156 42q-32 32 -35 82.5t26 177.5
l98 398h112zM391 758v5l113 107h160v-5l-169 -107h-104z" />
    <glyph glyph-name="Ucircumflex" unicode="&#xdb;" horiz-adv-x="694" 
d="M297 700l-102 -410q-16 -63 -21.5 -100t-3 -52t10.5 -23q17 -17 108 -17h45q55 0 77.5 4.5t34.5 16.5q9 9 15.5 19.5t18 45.5t26.5 96l104 420h112l-101 -409q-29 -116 -49.5 -163t-48.5 -75q-31 -31 -74 -42t-116 -11h-81q-114 0 -156 42q-32 32 -35 82.5t26 177.5
l98 398h112zM532 758l-59 52l-89 -52h-86v5l129 117h120l71 -117v-5h-86z" />
    <glyph glyph-name="Udieresis" unicode="&#xdc;" horiz-adv-x="694" 
d="M297 700l-102 -410q-16 -63 -21.5 -100t-3 -52t10.5 -23q17 -17 108 -17h45q55 0 77.5 4.5t34.5 16.5q9 9 15.5 19.5t18 45.5t26.5 96l104 420h112l-101 -409q-29 -116 -49.5 -163t-48.5 -75q-31 -31 -74 -42t-116 -11h-81q-114 0 -156 42q-32 32 -35 82.5t26 177.5
l98 398h112zM314 760l27 110h111l-27 -110h-111zM499 760l27 110h111l-27 -110h-111z" />
    <glyph glyph-name="Yacute" unicode="&#xdd;" horiz-adv-x="595" 
d="M701 700l-344 -420l-69 -280h-112l71 286l-140 414h116l97 -310h8l246 310h127zM346 758v5l113 107h160v-5l-169 -107h-104z" />
    <glyph glyph-name="Thorn" unicode="&#xde;" horiz-adv-x="618" 
d="M266 571h192q92 0 122 -30q59 -59 20 -215q-25 -101 -79 -155q-42 -42 -134 -42h-231l-32 -129h-112l174 700h112zM424 476h-182l-62 -252h203q47 0 62 15q27 27 48 111q23 91 -2 114q-12 12 -67 12z" />
    <glyph glyph-name="germandbls" unicode="&#xdf;" horiz-adv-x="620" 
d="M52 0l111 450h-89l23 90h89l6 23q22 83 54 115q42 42 115 42h120q82 0 108 -26q41 -41 13 -157q-17 -71 -43 -100t-76 -42v-1q56 -11 71.5 -50.5t-6.5 -131.5q-18 -75 -34.5 -110t-40.5 -59q-43 -43 -139 -43h-103l22 88h79q55 0 68 13q18 18 44 123q23 95 6 112
q-11 11 -53 11h-69l22 91h58q44 0 55 11q15 15 33 88q17 70 2 85q-11 11 -52 11h-79q-32 0 -44 -12q-16 -16 -27 -58l-140 -563h-104z" />
    <glyph glyph-name="agrave" unicode="&#xe0;" horiz-adv-x="560" 
d="M422 0h-95l16 70q-64 -43 -98 -57t-69 -14h-48q-57 0 -85 28q-36 36 -13 135q16 68 49 101q26 26 68.5 37t122.5 11q83 0 127 -16l15 61q17 72 2 87q-11 11 -41 11h-94q-36 0 -47 -11q-10 -10 -27 -69h-100q26 98 56 128q38 38 107 38h146q56 0 87 -31q40 -40 14 -142z
M216 86q30 0 54.5 8.5t85.5 37.5l25 103h-133q-47 0 -65.5 -3.5t-29.5 -14.5q-12 -12 -22 -53q-14 -57 -1 -70q8 -8 39 -8h47zM428 608h-94l-132 107v5h161l65 -107v-5z" />
    <glyph glyph-name="aacute" unicode="&#xe1;" horiz-adv-x="560" 
d="M422 0h-95l16 70q-64 -43 -98 -57t-69 -14h-48q-57 0 -85 28q-36 36 -13 135q16 68 49 101q26 26 68.5 37t122.5 11q83 0 127 -16l15 61q17 72 2 87q-11 11 -41 11h-94q-36 0 -47 -11q-10 -10 -27 -69h-100q26 98 56 128q38 38 107 38h146q56 0 87 -31q40 -40 14 -142z
M216 86q30 0 54.5 8.5t85.5 37.5l25 103h-133q-47 0 -65.5 -3.5t-29.5 -14.5q-12 -12 -22 -53q-14 -57 -1 -70q8 -8 39 -8h47zM301 608v5l113 107h160v-5l-169 -107h-104z" />
    <glyph glyph-name="acircumflex" unicode="&#xe2;" horiz-adv-x="560" 
d="M422 0h-95l16 70q-64 -43 -98 -57t-69 -14h-48q-57 0 -85 28q-36 36 -13 135q16 68 49 101q26 26 68.5 37t122.5 11q83 0 127 -16l15 61q17 72 2 87q-11 11 -41 11h-94q-36 0 -47 -11q-10 -10 -27 -69h-100q26 98 56 128q38 38 107 38h146q56 0 87 -31q40 -40 14 -142z
M216 86q30 0 54.5 8.5t85.5 37.5l25 103h-133q-47 0 -65.5 -3.5t-29.5 -14.5q-12 -12 -22 -53q-14 -57 -1 -70q8 -8 39 -8h47zM443 608l-59 52l-89 -52h-86v5l129 117h120l71 -117v-5h-86z" />
    <glyph glyph-name="atilde" unicode="&#xe3;" horiz-adv-x="560" 
d="M422 0h-95l16 70q-64 -43 -98 -57t-69 -14h-48q-57 0 -85 28q-36 36 -13 135q16 68 49 101q26 26 68.5 37t122.5 11q83 0 127 -16l15 61q17 72 2 87q-11 11 -41 11h-94q-36 0 -47 -11q-10 -10 -27 -69h-100q26 98 56 128q38 38 107 38h146q56 0 87 -31q40 -40 14 -142z
M216 86q30 0 54.5 8.5t85.5 37.5l25 103h-133q-47 0 -65.5 -3.5t-29.5 -14.5q-12 -12 -22 -53q-14 -57 -1 -70q8 -8 39 -8h47zM222 608l15 63q9 35 27 50q17 13 41 13h10q31 0 78 -20l67 -28l40 48h53l-16 -63q-9 -36 -26 -50q-17 -13 -41 -13h-10q-30 0 -78 20l-65 29
l-42 -49h-53z" />
    <glyph glyph-name="adieresis" unicode="&#xe4;" horiz-adv-x="560" 
d="M422 0h-95l16 70q-64 -43 -98 -57t-69 -14h-48q-57 0 -85 28q-36 36 -13 135q16 68 49 101q26 26 68.5 37t122.5 11q83 0 127 -16l15 61q17 72 2 87q-11 11 -41 11h-94q-36 0 -47 -11q-10 -10 -27 -69h-100q26 98 56 128q38 38 107 38h146q56 0 87 -31q40 -40 14 -142z
M216 86q30 0 54.5 8.5t85.5 37.5l25 103h-133q-47 0 -65.5 -3.5t-29.5 -14.5q-12 -12 -22 -53q-14 -57 -1 -70q8 -8 39 -8h47zM225 610l27 110h111l-27 -110h-111zM410 610l27 110h111l-27 -110h-111z" />
    <glyph glyph-name="aring" unicode="&#xe5;" horiz-adv-x="560" 
d="M422 0h-95l16 70q-64 -43 -98 -57t-69 -14h-48q-57 0 -85 28q-36 36 -13 135q16 68 49 101q26 26 68.5 37t122.5 11q83 0 127 -16l15 61q17 72 2 87q-11 11 -41 11h-94q-36 0 -47 -11q-10 -10 -27 -69h-100q26 98 56 128q38 38 107 38h146q56 0 87 -31q40 -40 14 -142z
M528 703q-9 -41 -34 -66q-27 -27 -81 -27h-66q-47 0 -67 20q-28 28 -14 87q10 42 35 67q26 26 80 26h66q47 0 69 -22q26 -26 12 -85zM216 86q30 0 54.5 8.5t85.5 37.5l25 103h-133q-47 0 -65.5 -3.5t-29.5 -14.5q-12 -12 -22 -53q-14 -57 -1 -70q8 -8 39 -8h47zM362 666h55
q22 0 30 8q9 9 15 35q7 30 -2 39q-6 6 -28 6h-55q-22 0 -29 -7q-10 -10 -16 -36q-7 -30 2 -39q6 -6 28 -6z" />
    <glyph glyph-name="ae" unicode="&#xe6;" horiz-adv-x="887" 
d="M270 311q83 0 127 -16l15 61q17 72 2 87q-11 11 -41 11h-94q-36 0 -47 -11q-10 -10 -27 -69h-100q26 98 56 128q38 38 107 38h142q56 0 87 -31l3 -4q41 35 124 35h104q66 0 98 -32q28 -28 29.5 -79.5t-30.5 -178.5q-3 -14 -16 -14h-326q-27 -119 -10 -136q10 -10 45 -10
h108q38 0 50 12t27 66h101q-28 -99 -61 -132q-37 -36 -115 -36h-136q-66 0 -98 32q-19 17 -26 49q-74 -50 -109.5 -66t-72.5 -16h-58q-57 0 -85 28q-36 36 -13 135q16 68 49 101q26 26 68.5 37t122.5 11zM216 86q29 0 53 8.5t80 34.5q11 5 17 8q3 41 16 98h-134
q-47 0 -65.5 -3.5t-29.5 -14.5q-12 -12 -22 -53q-14 -57 -1 -70q8 -8 39 -8h47zM739 318q24 106 8 122q-10 10 -45 10h-106q-38 0 -51 -13q-16 -16 -42 -119h236z" />
    <glyph glyph-name="ccedilla" unicode="&#xe7;" horiz-adv-x="541" 
d="M300 0h-136q-66 0 -97 31q-28 28 -30.5 77.5t25.5 171.5q26 109 44.5 151.5t43.5 67.5q41 41 130 41h120q68 0 98 -30q22 -22 24 -57t-14 -103h-99q15 77 3 89q-9 9 -43 9h-100q-38 0 -51 -13q-18 -18 -54 -165q-37 -149 -19 -167q11 -11 46 -11h104q32 0 43 11
q15 15 35 94h101q-20 -78 -34 -109t-37 -54q-34 -34 -103 -34zM171 -90h-40l16 60h47q51 0 66 -15q19 -19 8 -70q-9 -38 -30 -59q-20 -20 -73 -20h-76l-47 40l5 20h119q16 0 21 4q5 3 8 17q3 13 -1 18t-23 5z" />
    <glyph glyph-name="egrave" unicode="&#xe8;" horiz-adv-x="559" 
d="M300 0h-136q-66 0 -98 32q-27 27 -29 76.5t25 171.5q26 109 44.5 151.5t43.5 67.5q41 41 130 41h120q66 0 98 -32q28 -28 29.5 -79.5t-30.5 -178.5q-3 -14 -16 -14h-326q-27 -119 -10 -136q10 -10 45 -10h108q38 0 50 12t27 66h101q-28 -99 -61 -132q-37 -36 -115 -36z
M217 437q-16 -16 -42 -119h236q24 106 8 122q-10 10 -45 10h-106q-38 0 -51 -13zM421 608h-94l-132 107v5h161l65 -107v-5z" />
    <glyph glyph-name="eacute" unicode="&#xe9;" horiz-adv-x="559" 
d="M300 0h-136q-66 0 -98 32q-27 27 -29 76.5t25 171.5q26 109 44.5 151.5t43.5 67.5q41 41 130 41h120q66 0 98 -32q28 -28 29.5 -79.5t-30.5 -178.5q-3 -14 -16 -14h-326q-27 -119 -10 -136q10 -10 45 -10h108q38 0 50 12t27 66h101q-28 -99 -61 -132q-37 -36 -115 -36z
M217 437q-16 -16 -42 -119h236q24 106 8 122q-10 10 -45 10h-106q-38 0 -51 -13zM294 608v5l113 107h160v-5l-169 -107h-104z" />
    <glyph glyph-name="ecircumflex" unicode="&#xea;" horiz-adv-x="559" 
d="M300 0h-136q-66 0 -98 32q-27 27 -29 76.5t25 171.5q26 109 44.5 151.5t43.5 67.5q41 41 130 41h120q66 0 98 -32q28 -28 29.5 -79.5t-30.5 -178.5q-3 -14 -16 -14h-326q-27 -119 -10 -136q10 -10 45 -10h108q38 0 50 12t27 66h101q-28 -99 -61 -132q-37 -36 -115 -36z
M217 437q-16 -16 -42 -119h236q24 106 8 122q-10 10 -45 10h-106q-38 0 -51 -13zM435 608l-59 52l-89 -52h-86v5l129 117h120l71 -117v-5h-86z" />
    <glyph glyph-name="edieresis" unicode="&#xeb;" horiz-adv-x="559" 
d="M300 0h-136q-66 0 -98 32q-27 27 -29 76.5t25 171.5q26 109 44.5 151.5t43.5 67.5q41 41 130 41h120q66 0 98 -32q28 -28 29.5 -79.5t-30.5 -178.5q-3 -14 -16 -14h-326q-27 -119 -10 -136q10 -10 45 -10h108q38 0 50 12t27 66h101q-28 -99 -61 -132q-37 -36 -115 -36z
M217 437q-16 -16 -42 -119h236q24 106 8 122q-10 10 -45 10h-106q-38 0 -51 -13zM217 610l27 110h111l-27 -110h-111zM402 610l27 110h111l-27 -110h-111z" />
    <glyph glyph-name="igrave" unicode="&#xec;" horiz-adv-x="250" 
d="M245 540l-136 -540h-104l136 540h104zM266 608h-94l-132 107v5h161l65 -107v-5z" />
    <glyph glyph-name="iacute" unicode="&#xed;" horiz-adv-x="250" 
d="M245 540l-136 -540h-104l136 540h104zM139 608v5l113 107h160v-5l-169 -107h-104z" />
    <glyph glyph-name="icircumflex" unicode="&#xee;" horiz-adv-x="250" 
d="M245 540l-136 -540h-104l136 540h104zM280 608l-59 52l-89 -52h-86v5l129 117h120l71 -117v-5h-86z" />
    <glyph glyph-name="idieresis" unicode="&#xef;" horiz-adv-x="250" 
d="M245 540l-136 -540h-104l136 540h104zM62 610l27 110h111l-27 -110h-111zM247 610l27 110h111l-27 -110h-111z" />
    <glyph glyph-name="eth" unicode="&#xf0;" horiz-adv-x="583" 
d="M517 260q-28 -114 -48.5 -159.5t-53.5 -71.5q-36 -29 -116 -29h-132q-71 0 -102 36q-23 27 -26 69t20 150q24 100 43.5 141t50.5 65q38 29 118 29h48q29 0 53 -13t80 -55q11 55 11 78q0 30 -28 88l-145 -49l18 82l94 32l-35 67h84l11 -16q12 -15 19 -25l143 49l-18 -81
l-83 -29q43 -66 43 -109q0 -48 -49 -249zM415 270l23 94q-57 34 -95 34h-82q-35 0 -48 -10q-21 -16 -52 -143q-29 -122 -14 -141q9 -12 47 -12h116q35 0 48 10q11 8 22 39.5t35 128.5z" />
    <glyph glyph-name="ntilde" unicode="&#xf1;" 
d="M110 0h-104l136 540h102l-18 -71q72 48 97.5 60t59.5 12h59q50 0 81 -31q43 -43 17 -145l-92 -365h-104l94 374q11 45 -5 61q-14 14 -50 14h-39q-29 0 -53 -7.5t-78 -32.5zM233 608l15 63q9 35 27 50q17 13 41 13h10q30 0 78 -20l67 -28l40 48h53l-16 -63q-9 -36 -26 -50
q-17 -13 -41 -13h-10q-31 0 -78 20l-65 29l-42 -49h-53z" />
    <glyph glyph-name="ograve" unicode="&#xf2;" horiz-adv-x="573" 
d="M511 260q-26 -109 -44.5 -151.5t-43.5 -67.5q-41 -41 -130 -41h-129q-66 0 -98 32q-27 27 -29 76.5t25 171.5q26 109 44.5 151.5t43.5 67.5q41 41 130 41h129q66 0 98 -32q27 -27 29.5 -76.5t-25.5 -171.5zM164 270q-37 -150 -18 -169q10 -10 45 -10h113q38 0 51 13
q17 17 54 166q37 150 18 169q-10 10 -45 10h-113q-38 0 -51 -13q-17 -17 -54 -166zM428 608h-94l-132 107v5h161l65 -107v-5z" />
    <glyph glyph-name="oacute" unicode="&#xf3;" horiz-adv-x="573" 
d="M511 260q-26 -109 -44.5 -151.5t-43.5 -67.5q-41 -41 -130 -41h-129q-66 0 -98 32q-27 27 -29 76.5t25 171.5q26 109 44.5 151.5t43.5 67.5q41 41 130 41h129q66 0 98 -32q27 -27 29.5 -76.5t-25.5 -171.5zM164 270q-37 -150 -18 -169q10 -10 45 -10h113q38 0 51 13
q17 17 54 166q37 150 18 169q-10 10 -45 10h-113q-38 0 -51 -13q-17 -17 -54 -166zM301 608v5l113 107h160v-5l-169 -107h-104z" />
    <glyph glyph-name="ocircumflex" unicode="&#xf4;" horiz-adv-x="573" 
d="M511 260q-26 -109 -44.5 -151.5t-43.5 -67.5q-41 -41 -130 -41h-129q-66 0 -98 32q-27 27 -29 76.5t25 171.5q26 109 44.5 151.5t43.5 67.5q41 41 130 41h129q66 0 98 -32q27 -27 29.5 -76.5t-25.5 -171.5zM164 270q-37 -150 -18 -169q10 -10 45 -10h113q38 0 51 13
q17 17 54 166q37 150 18 169q-10 10 -45 10h-113q-38 0 -51 -13q-17 -17 -54 -166zM442 608l-59 52l-89 -52h-86v5l129 117h120l71 -117v-5h-86z" />
    <glyph glyph-name="otilde" unicode="&#xf5;" horiz-adv-x="573" 
d="M511 260q-26 -109 -44.5 -151.5t-43.5 -67.5q-41 -41 -130 -41h-129q-66 0 -98 32q-27 27 -29 76.5t25 171.5q26 109 44.5 151.5t43.5 67.5q41 41 130 41h129q66 0 98 -32q27 -27 29.5 -76.5t-25.5 -171.5zM164 270q-37 -150 -18 -169q10 -10 45 -10h113q38 0 51 13
q17 17 54 166q37 150 18 169q-10 10 -45 10h-113q-38 0 -51 -13q-17 -17 -54 -166zM222 608l15 63q9 35 27 50q17 13 41 13h10q31 0 78 -20l67 -28l40 48h53l-16 -63q-9 -36 -26 -50q-17 -13 -41 -13h-10q-30 0 -78 20l-65 29l-42 -49h-53z" />
    <glyph glyph-name="odieresis" unicode="&#xf6;" horiz-adv-x="573" 
d="M511 260q-26 -109 -44.5 -151.5t-43.5 -67.5q-41 -41 -130 -41h-129q-66 0 -98 32q-27 27 -29 76.5t25 171.5q26 109 44.5 151.5t43.5 67.5q41 41 130 41h129q66 0 98 -32q27 -27 29.5 -76.5t-25.5 -171.5zM164 270q-37 -150 -18 -169q10 -10 45 -10h113q38 0 51 13
q17 17 54 166q37 150 18 169q-10 10 -45 10h-113q-38 0 -51 -13q-17 -17 -54 -166zM224 610l27 110h111l-27 -110h-111zM409 610l27 110h111l-27 -110h-111z" />
    <glyph glyph-name="divide" unicode="&#xf7;" horiz-adv-x="508" 
d="M68 317l23 92h396l-23 -92h-396zM168 152l28 112h114l-28 -112h-114zM245 462l28 112h114l-28 -112h-114z" />
    <glyph glyph-name="oslash" unicode="&#xf8;" horiz-adv-x="573" 
d="M511 260q-26 -109 -44.5 -151.5t-43.5 -67.5q-41 -41 -130 -41h-129q-25 0 -43 3l-42 -53h-102l77 96q-19 23 -18 78t26 156q26 109 44.5 151.5t43.5 67.5q41 41 130 41h129q20 0 44 -4l43 54h102l-79 -97q35 -54 -8 -233zM164 270q-22 -87 -25 -128l244 307h-1h-113
q-38 0 -51 -13q-17 -17 -54 -166zM409 270q19 80 25 125l-243 -304h113q38 0 51 13q17 17 54 166z" />
    <glyph glyph-name="ugrave" unicode="&#xf9;" 
d="M475 540h104l-136 -540h-102l17 70q-71 -47 -97 -59t-59 -12h-59q-50 0 -81 31q-43 43 -17 145l92 365h104l-94 -374q-11 -45 5 -61q14 -14 50 -14h39q29 0 53 7.5t78 32.5zM430 608h-94l-132 107v5h161l65 -107v-5z" />
    <glyph glyph-name="uacute" unicode="&#xfa;" 
d="M475 540h104l-136 -540h-102l17 70q-71 -47 -97 -59t-59 -12h-59q-50 0 -81 31q-43 43 -17 145l92 365h104l-94 -374q-11 -45 5 -61q14 -14 50 -14h39q29 0 53 7.5t78 32.5zM303 608v5l113 107h160v-5l-169 -107h-104z" />
    <glyph glyph-name="ucircumflex" unicode="&#xfb;" 
d="M475 540h104l-136 -540h-102l17 70q-71 -47 -97 -59t-59 -12h-59q-50 0 -81 31q-43 43 -17 145l92 365h104l-94 -374q-11 -45 5 -61q14 -14 50 -14h39q29 0 53 7.5t78 32.5zM445 608l-59 52l-89 -52h-86v5l129 117h120l71 -117v-5h-86z" />
    <glyph glyph-name="udieresis" unicode="&#xfc;" 
d="M475 540h104l-136 -540h-102l17 70q-71 -47 -97 -59t-59 -12h-59q-50 0 -81 31q-43 43 -17 145l92 365h104l-94 -374q-11 -45 5 -61q14 -14 50 -14h39q29 0 53 7.5t78 32.5zM412 610l27 110h111l-27 -110h-111zM227 610l27 110h111l-27 -110h-111z" />
    <glyph glyph-name="yacute" unicode="&#xfd;" horiz-adv-x="536" 
d="M82 540h109l48 -391h6l220 391h117l-374 -625q-40 -67 -113 -67q-36 0 -106 7l22 86h92q15 0 27 18l29 47zM285 608v5l113 107h160v-5l-169 -107h-104z" />
    <glyph glyph-name="thorn" unicode="&#xfe;" horiz-adv-x="587" 
d="M72 -150h-104l217 870h104l-62 -249q65 46 93.5 58t66.5 12h47q66 0 95 -29q25 -25 26 -73.5t-27 -169.5q-27 -111 -46 -157.5t-44 -71.5q-41 -41 -130 -41h-46q-30 0 -54.5 13t-81.5 56zM344 449q-31 0 -52.5 -7t-80.5 -35l-70 -281q58 -35 98 -35h66q45 0 62 17
q23 23 58 165q22 90 25 121.5t-9 42.5q-12 12 -52 12h-45z" />
    <glyph glyph-name="ydieresis" unicode="&#xff;" horiz-adv-x="536" 
d="M82 540h109l48 -391h6l220 391h117l-374 -625q-40 -67 -113 -67q-36 0 -106 7l22 86h92q15 0 27 18l29 47zM393 610l27 110h111l-27 -110h-111zM208 610l27 110h111l-27 -110h-111z" />
    <glyph glyph-name="Amacron" unicode="&#x100;" horiz-adv-x="646" 
d="M386 703h74q29 0 39 -8t12 -34l53 -661h-109l-13 198h-267l-109 -198h-117l390 676q10 17 18.5 22t28.5 5zM401 605l-173 -314h208l-20 314h-15zM297 760l19 85h302l-19 -85h-302z" />
    <glyph glyph-name="amacron" unicode="&#x101;" horiz-adv-x="560" 
d="M422 0h-95l16 70q-64 -43 -98 -57t-69 -14h-48q-57 0 -85 28q-36 36 -13 135q16 68 49 101q26 26 68.5 37t122.5 11q83 0 127 -16l15 61q17 72 2 87q-11 11 -41 11h-94q-36 0 -47 -11q-10 -10 -27 -69h-100q26 98 56 128q38 38 107 38h146q56 0 87 -31q40 -40 14 -142z
M216 86q30 0 54.5 8.5t85.5 37.5l25 103h-133q-47 0 -65.5 -3.5t-29.5 -14.5q-12 -12 -22 -53q-14 -57 -1 -70q8 -8 39 -8h47zM222 610l19 85h302l-19 -85h-302z" />
    <glyph glyph-name="Abreve" unicode="&#x102;" horiz-adv-x="646" 
d="M386 703h74q29 0 39 -8t12 -34l53 -661h-109l-13 198h-267l-109 -198h-117l390 676q10 17 18.5 22t28.5 5zM401 605l-173 -314h208l-20 314h-15zM461 828q59 0 86 52h78q-18 -61 -63 -93t-111 -32q-64 0 -98.5 34t-31.5 91h76q2 -21 19 -36.5t45 -15.5z" />
    <glyph glyph-name="abreve" unicode="&#x103;" horiz-adv-x="560" 
d="M422 0h-95l16 70q-64 -43 -98 -57t-69 -14h-48q-57 0 -85 28q-36 36 -13 135q16 68 49 101q26 26 68.5 37t122.5 11q83 0 127 -16l15 61q17 72 2 87q-11 11 -41 11h-94q-36 0 -47 -11q-10 -10 -27 -69h-100q26 98 56 128q38 38 107 38h146q56 0 87 -31q40 -40 14 -142z
M216 86q30 0 54.5 8.5t85.5 37.5l25 103h-133q-47 0 -65.5 -3.5t-29.5 -14.5q-12 -12 -22 -53q-14 -57 -1 -70q8 -8 39 -8h47zM386 678q59 0 86 52h78q-18 -61 -63 -93t-111 -32q-64 0 -98.5 34t-31.5 91h76q2 -21 19 -36.5t45 -15.5z" />
    <glyph glyph-name="Aogonek" unicode="&#x104;" horiz-adv-x="646" 
d="M386 703h74q29 0 39 -8t12 -34l53 -661h-90q-30 -23 -41 -37q-9 -10 -17 -43q-7 -31 -3 -38q4 -6 21 -6h28q11 0 15 4q7 5 18 50h73q-14 -56 -23.5 -77.5t-25.5 -32.5q-19 -14 -57 -14h-57q-46 0 -63 17q-20 21 -10 77q7 37 30 64q22 26 91 67l-11 167h-267l-109 -198
h-117l390 676q10 17 18.5 22t28.5 5zM401 605l-173 -314h208l-20 314h-15z" />
    <glyph glyph-name="aogonek" unicode="&#x105;" horiz-adv-x="560" 
d="M422 0h-56q-30 -23 -41 -37q-9 -10 -17 -43q-7 -31 -3 -38q4 -6 21 -6h28q11 0 15 4q7 5 18 50h73q-14 -56 -23.5 -77.5t-25.5 -32.5q-19 -14 -57 -14h-57q-46 0 -63 17q-20 21 -10 77q7 37 30 64q18 22 78 59l11 47q-64 -43 -98 -57t-69 -14h-48q-57 0 -85 28
q-36 36 -13 135q16 68 49 101q26 26 68.5 37t122.5 11q83 0 127 -16l15 61q17 72 2 87q-11 11 -41 11h-94q-36 0 -47 -11q-10 -10 -27 -69h-100q26 98 56 128q38 38 107 38h146q56 0 87 -31q40 -40 14 -142zM216 86q30 0 54.5 8.5t85.5 37.5l25 103h-133q-47 0 -65.5 -3.5
t-29.5 -14.5q-12 -12 -22 -53q-14 -57 -1 -70q8 -8 39 -8h47z" />
    <glyph glyph-name="Cacute" unicode="&#x106;" horiz-adv-x="653" 
d="M643 470h-107q12 73 11.5 93.5t-9.5 29.5q-12 12 -51 12h-152q-42 0 -58 -16q-29 -29 -81 -239q-24 -96 -32.5 -151.5t-6 -70t10.5 -22.5q11 -11 47 -11h157q43 0 59 16q22 22 53 130h108q-43 -150 -88 -195q-29 -29 -59 -37.5t-84 -8.5h-165q-79 0 -111 32
q-20 20 -28.5 51t-3 100.5t31.5 176.5q26 105 50.5 171t37.5 86t30 37q29 29 59 37.5t84 8.5h160q81 0 116 -33q23 -23 28.5 -64t-7.5 -133zM384 758v5l113 107h160v-5l-169 -107h-104z" />
    <glyph glyph-name="cacute" unicode="&#x107;" horiz-adv-x="541" 
d="M300 0h-136q-66 0 -97 31q-28 28 -30.5 77.5t25.5 171.5q26 109 44.5 151.5t43.5 67.5q41 41 130 41h120q68 0 98 -30q22 -22 24 -57t-14 -103h-99q15 77 3 89q-9 9 -43 9h-100q-38 0 -51 -13q-18 -18 -54 -165q-37 -149 -19 -167q11 -11 46 -11h104q32 0 43 11
q15 15 35 94h101q-20 -78 -34 -109t-37 -54q-34 -34 -103 -34zM293 608v5l113 107h160v-5l-169 -107h-104z" />
    <glyph glyph-name="Cdotaccent" unicode="&#x10a;" horiz-adv-x="653" 
d="M643 470h-107q12 73 11.5 93.5t-9.5 29.5q-12 12 -51 12h-152q-42 0 -58 -16q-29 -29 -81 -239q-24 -96 -32.5 -151.5t-6 -70t10.5 -22.5q11 -11 47 -11h157q43 0 59 16q22 22 53 130h108q-43 -150 -88 -195q-29 -29 -59 -37.5t-84 -8.5h-165q-79 0 -111 32
q-20 20 -28.5 51t-3 100.5t31.5 176.5q26 105 50.5 171t37.5 86t30 37q29 29 59 37.5t84 8.5h160q81 0 116 -33q23 -23 28.5 -64t-7.5 -133zM397 769l28 111h118l-28 -111h-118z" />
    <glyph glyph-name="cdotaccent" unicode="&#x10b;" horiz-adv-x="541" 
d="M300 0h-136q-66 0 -97 31q-28 28 -30.5 77.5t25.5 171.5q26 109 44.5 151.5t43.5 67.5q41 41 130 41h120q68 0 98 -30q22 -22 24 -57t-14 -103h-99q15 77 3 89q-9 9 -43 9h-100q-38 0 -51 -13q-18 -18 -54 -165q-37 -149 -19 -167q11 -11 46 -11h104q32 0 43 11
q15 15 35 94h101q-20 -78 -34 -109t-37 -54q-34 -34 -103 -34zM307 619l28 111h118l-28 -111h-118z" />
    <glyph glyph-name="Ccaron" unicode="&#x10c;" horiz-adv-x="653" 
d="M643 470h-107q12 73 11.5 93.5t-9.5 29.5q-12 12 -51 12h-152q-42 0 -58 -16q-29 -29 -81 -239q-24 -96 -32.5 -151.5t-6 -70t10.5 -22.5q11 -11 47 -11h157q43 0 59 16q22 22 53 130h108q-43 -150 -88 -195q-29 -29 -59 -37.5t-84 -8.5h-165q-79 0 -111 32
q-20 20 -28.5 51t-3 100.5t31.5 176.5q26 105 50.5 171t37.5 86t30 37q29 29 59 37.5t84 8.5h160q81 0 116 -33q23 -23 28.5 -64t-7.5 -133zM407 880l59 -52l89 52h86v-5l-129 -117h-120l-71 117v5h86z" />
    <glyph glyph-name="ccaron" unicode="&#x10d;" horiz-adv-x="541" 
d="M300 0h-136q-66 0 -97 31q-28 28 -30.5 77.5t25.5 171.5q26 109 44.5 151.5t43.5 67.5q41 41 130 41h120q68 0 98 -30q22 -22 24 -57t-14 -103h-99q15 77 3 89q-9 9 -43 9h-100q-38 0 -51 -13q-18 -18 -54 -165q-37 -149 -19 -167q11 -11 46 -11h104q32 0 43 11
q15 15 35 94h101q-20 -78 -34 -109t-37 -54q-34 -34 -103 -34zM316 730l59 -52l89 52h86v-5l-129 -117h-120l-71 117v5h86z" />
    <glyph glyph-name="Dcaron" unicode="&#x10e;" horiz-adv-x="668" 
d="M186 700h273q64 0 100 -11t62 -37q69 -69 10 -313q-50 -204 -120 -274q-37 -37 -85 -51t-118 -14h-296zM442 606h-168l-127 -512h184q70 0 101 31q23 23 42 68.5t47 156.5q29 114 31 165t-20 70q-13 13 -31.5 17t-58.5 4zM391 880l59 -52l89 52h86v-5l-129 -117h-120
l-71 117v5h86z" />
    <glyph glyph-name="dcaron" unicode="&#x10f;" horiz-adv-x="587" 
d="M279 541h46q29 0 54 -13t81 -56l63 248h104l-181 -720h-102l17 70q-66 -47 -94.5 -59t-66.5 -12h-47q-66 0 -95 29q-25 25 -26 73.5t27 169.5q27 111 46 157.5t44 71.5q41 41 130 41zM243 91q31 0 52 7t80 35l70 280q-60 36 -97 36h-66q-45 0 -62 -17q-23 -23 -58 -165
q-22 -90 -25 -121.5t9 -42.5q12 -12 52 -12h45zM814 800l-19 -75q-10 -38 -22.5 -60.5t-41.5 -52.5l-60 -62l-32 21l42 81q11 22 11 46v82l5 20h117z" />
    <glyph glyph-name="Dcroat" unicode="&#x110;" horiz-adv-x="678" 
d="M196 700h273q64 0 100 -11t62 -37q69 -69 10 -313q-50 -204 -120 -274q-37 -37 -85 -51t-118 -14h-296l76 307h-94l23 92h94zM452 606h-168l-51 -207h154l-23 -92h-154l-53 -213h184q70 0 101 31q23 23 42 68.5t47 156.5q29 114 31 165t-20 70q-13 13 -31.5 17t-58.5 4z
" />
    <glyph glyph-name="dcroat" unicode="&#x111;" horiz-adv-x="587" 
d="M279 541h46q29 0 54 -13t81 -56l26 102h-135l20 82h136l16 64h104l-16 -64h80l-20 -82h-81l-144 -574h-102l17 70q-66 -47 -94.5 -59t-66.5 -12h-47q-66 0 -95 29q-25 25 -26 73.5t27 169.5q27 111 46 157.5t44 71.5q41 41 130 41zM243 91q31 0 52 7t80 35l70 280
q-60 36 -97 36h-66q-45 0 -62 -17q-23 -23 -58 -165q-22 -90 -25 -121.5t9 -42.5q12 -12 52 -12h45z" />
    <glyph glyph-name="Emacron" unicode="&#x112;" horiz-adv-x="591" 
d="M501 95l-23 -95h-466l174 700h466l-24 -95h-355l-48 -194h292l-24 -95h-292l-54 -221h354zM275 760l19 85h302l-19 -85h-302z" />
    <glyph glyph-name="emacron" unicode="&#x113;" horiz-adv-x="559" 
d="M300 0h-136q-66 0 -98 32q-27 27 -29 76.5t25 171.5q26 109 44.5 151.5t43.5 67.5q41 41 130 41h120q66 0 98 -32q28 -28 29.5 -79.5t-30.5 -178.5q-3 -14 -16 -14h-326q-27 -119 -10 -136q10 -10 45 -10h108q38 0 50 12t27 66h101q-28 -99 -61 -132q-37 -36 -115 -36z
M217 437q-16 -16 -42 -119h236q24 106 8 122q-10 10 -45 10h-106q-38 0 -51 -13zM215 610l19 85h302l-19 -85h-302z" />
    <glyph glyph-name="Ebreve" unicode="&#x114;" horiz-adv-x="591" 
d="M501 95l-23 -95h-466l174 700h466l-24 -95h-355l-48 -194h292l-24 -95h-292l-54 -221h354zM438 828q59 0 86 52h78q-18 -61 -63 -93t-111 -32q-64 0 -98.5 34t-31.5 91h76q2 -21 19 -36.5t45 -15.5z" />
    <glyph glyph-name="ebreve" unicode="&#x115;" horiz-adv-x="559" 
d="M300 0h-136q-66 0 -98 32q-27 27 -29 76.5t25 171.5q26 109 44.5 151.5t43.5 67.5q41 41 130 41h120q66 0 98 -32q28 -28 29.5 -79.5t-30.5 -178.5q-3 -14 -16 -14h-326q-27 -119 -10 -136q10 -10 45 -10h108q38 0 50 12t27 66h101q-28 -99 -61 -132q-37 -36 -115 -36z
M217 437q-16 -16 -42 -119h236q24 106 8 122q-10 10 -45 10h-106q-38 0 -51 -13zM379 678q59 0 86 52h78q-18 -61 -63 -93t-111 -32q-64 0 -98.5 34t-31.5 91h76q2 -21 19 -36.5t45 -15.5z" />
    <glyph glyph-name="Edotaccent" unicode="&#x116;" horiz-adv-x="591" 
d="M501 95l-23 -95h-466l174 700h466l-24 -95h-355l-48 -194h292l-24 -95h-292l-54 -221h354zM367 769l28 111h118l-28 -111h-118z" />
    <glyph glyph-name="edotaccent" unicode="&#x117;" horiz-adv-x="559" 
d="M300 0h-136q-66 0 -98 32q-27 27 -29 76.5t25 171.5q26 109 44.5 151.5t43.5 67.5q41 41 130 41h120q66 0 98 -32q28 -28 29.5 -79.5t-30.5 -178.5q-3 -14 -16 -14h-326q-27 -119 -10 -136q10 -10 45 -10h108q38 0 50 12t27 66h101q-28 -99 -61 -132q-37 -36 -115 -36z
M217 437q-16 -16 -42 -119h236q24 106 8 122q-10 10 -45 10h-106q-38 0 -51 -13zM308 619l28 111h118l-28 -111h-118z" />
    <glyph glyph-name="Eogonek" unicode="&#x118;" horiz-adv-x="591" 
d="M316 -80q-7 -31 -3 -38q4 -6 21 -6h28q11 0 15 4q7 5 18 50h73q-14 -56 -23.5 -77.5t-25.5 -32.5q-19 -14 -57 -14h-57q-46 0 -63 17q-20 21 -10 77q7 37 30 64q13 16 43 36h-293l174 700h466l-24 -95h-355l-48 -194h292l-24 -95h-292l-54 -221h354l-23 -95h-104
q-30 -23 -41 -37q-9 -10 -17 -43z" />
    <glyph glyph-name="eogonek" unicode="&#x119;" horiz-adv-x="559" 
d="M259 -80q-7 -31 -3 -38q4 -6 21 -6h28q11 0 15 4q7 5 18 50h73q-14 -56 -23.5 -77.5t-25.5 -32.5q-19 -14 -57 -14h-57q-46 0 -63 17q-20 21 -10 77q7 37 30 64q13 16 43 36h-84q-66 0 -98 32q-27 27 -29 76.5t25 171.5q26 109 44.5 151.5t43.5 67.5q41 41 130 41h120
q66 0 98 -32q28 -28 29.5 -79.5t-30.5 -178.5q-3 -14 -16 -14h-326q-27 -119 -10 -136q10 -10 45 -10h108q38 0 50 12t27 66h101q-28 -99 -61 -132q-36 -35 -98 -36q-34 -28 -41 -37q-9 -10 -17 -43zM217 437q-16 -16 -42 -119h236q24 106 8 122q-10 10 -45 10h-106
q-38 0 -51 -13z" />
    <glyph glyph-name="Ecaron" unicode="&#x11a;" horiz-adv-x="591" 
d="M501 95l-23 -95h-466l174 700h466l-24 -95h-355l-48 -194h292l-24 -95h-292l-54 -221h354zM377 880l59 -52l89 52h86v-5l-129 -117h-120l-71 117v5h86z" />
    <glyph glyph-name="ecaron" unicode="&#x11b;" horiz-adv-x="559" 
d="M300 0h-136q-66 0 -98 32q-27 27 -29 76.5t25 171.5q26 109 44.5 151.5t43.5 67.5q41 41 130 41h120q66 0 98 -32q28 -28 29.5 -79.5t-30.5 -178.5q-3 -14 -16 -14h-326q-27 -119 -10 -136q10 -10 45 -10h108q38 0 50 12t27 66h101q-28 -99 -61 -132q-37 -36 -115 -36z
M217 437q-16 -16 -42 -119h236q24 106 8 122q-10 10 -45 10h-106q-38 0 -51 -13zM317 730l59 -52l89 52h86v-5l-129 -117h-120l-71 117v5h86z" />
    <glyph glyph-name="Gbreve" unicode="&#x11e;" horiz-adv-x="671" 
d="M494 272h-157l24 95h267q-12 -54 -22 -89q-49 -181 -100 -232q-29 -29 -59 -37.5t-84 -8.5h-167q-79 0 -111 32q-20 20 -28.5 51t-3 100.5t31.5 176.5q26 105 50.5 171t37.5 86t30 37q29 29 59 37.5t84 8.5h170q79 0 111 -32q23 -23 27.5 -61.5t-9.5 -126.5h-104
q11 68 10 86.5t-10 27.5q-11 11 -47 11h-159q-42 0 -58 -16q-29 -29 -81 -239q-24 -96 -32.5 -151.5t-6 -70t10.5 -22.5q11 -11 47 -11h160q43 0 59 16q23 23 60 161zM469 828q59 0 86 52h78q-18 -61 -63 -93t-111 -32q-64 0 -98.5 34t-31.5 91h76q2 -21 19 -36.5t45 -15.5z
" />
    <glyph glyph-name="gbreve" unicode="&#x11f;" horiz-adv-x="587" 
d="M5 -16h100q-6 -32 3 -41q8 -8 34 -8h126q39 0 49 9q14 12 28 68l28 113q-65 -47 -93.5 -58.5t-66.5 -11.5h-36q-66 0 -96 30q-28 28 -32.5 74t19.5 150q23 88 40.5 128t40.5 63q41 41 130 41h45q29 0 53.5 -13t81.5 -57l18 69h104l-129 -514q-18 -71 -31 -99.5t-37 -47.5
q-37 -29 -111 -29h-172q-54 0 -80 26q-31 31 -16 108zM169 297q-29 -116 -7 -138q13 -13 53 -13h41q28 0 47.5 6.5t70.5 29.5q10 4 15 7l56 224q-63 37 -98 37h-65q-45 0 -62 -17q-22 -22 -51 -136zM402 678q59 0 86 52h78q-18 -61 -63 -93t-111 -32q-64 0 -98.5 34
t-31.5 91h76q2 -21 19 -36.5t45 -15.5z" />
    <glyph glyph-name="Gdotaccent" unicode="&#x120;" horiz-adv-x="671" 
d="M494 272h-157l24 95h267q-12 -54 -22 -89q-49 -181 -100 -232q-29 -29 -59 -37.5t-84 -8.5h-167q-79 0 -111 32q-20 20 -28.5 51t-3 100.5t31.5 176.5q26 105 50.5 171t37.5 86t30 37q29 29 59 37.5t84 8.5h170q79 0 111 -32q23 -23 27.5 -61.5t-9.5 -126.5h-104
q11 68 10 86.5t-10 27.5q-11 11 -47 11h-159q-42 0 -58 -16q-29 -29 -81 -239q-24 -96 -32.5 -151.5t-6 -70t10.5 -22.5q11 -11 47 -11h160q43 0 59 16q23 23 60 161zM398 769l28 111h118l-28 -111h-118z" />
    <glyph glyph-name="gdotaccent" unicode="&#x121;" horiz-adv-x="587" 
d="M5 -16h100q-6 -32 3 -41q8 -8 34 -8h126q39 0 49 9q14 12 28 68l28 113q-65 -47 -93.5 -58.5t-66.5 -11.5h-36q-66 0 -96 30q-28 28 -32.5 74t19.5 150q23 88 40.5 128t40.5 63q41 41 130 41h45q29 0 53.5 -13t81.5 -57l18 69h104l-129 -514q-18 -71 -31 -99.5t-37 -47.5
q-37 -29 -111 -29h-172q-54 0 -80 26q-31 31 -16 108zM169 297q-29 -116 -7 -138q13 -13 53 -13h41q28 0 47.5 6.5t70.5 29.5q10 4 15 7l56 224q-63 37 -98 37h-65q-45 0 -62 -17q-22 -22 -51 -136zM330 619l28 111h118l-28 -111h-118z" />
    <glyph glyph-name="Gcommaaccent" unicode="&#x122;" horiz-adv-x="671" 
d="M494 272h-157l24 95h267q-12 -54 -22 -89q-49 -181 -100 -232q-29 -29 -59 -37.5t-84 -8.5h-167q-79 0 -111 32q-20 20 -28.5 51t-3 100.5t31.5 176.5q26 105 50.5 171t37.5 86t30 37q29 29 59 37.5t84 8.5h170q79 0 111 -32q23 -23 27.5 -61.5t-9.5 -126.5h-104
q11 68 10 86.5t-10 27.5q-11 11 -47 11h-159q-42 0 -58 -16q-29 -29 -81 -239q-24 -96 -32.5 -151.5t-6 -70t10.5 -22.5q11 -11 47 -11h160q43 0 59 16q23 23 60 161zM210 -70h113l-29 -114q-10 -37 -41 -62l-97 -79l-26 27l77 79q9 11 14 23l2 6h-43z" />
    <glyph glyph-name="gcommaaccent" unicode="&#x123;" horiz-adv-x="587" 
d="M5 -16h100q-6 -32 3 -41q8 -8 34 -8h126q39 0 49 9q14 12 28 68l28 113q-65 -47 -93.5 -58.5t-66.5 -11.5h-36q-66 0 -96 30q-28 28 -32.5 74t19.5 150q23 88 40.5 128t40.5 63q41 41 130 41h45q29 0 53.5 -13t81.5 -57l18 69h104l-129 -514q-18 -71 -31 -99.5t-37 -47.5
q-37 -29 -111 -29h-172q-54 0 -80 26q-31 31 -16 108zM169 297q-29 -116 -7 -138q13 -13 53 -13h41q28 0 47.5 6.5t70.5 29.5q10 4 15 7l56 224q-63 37 -98 37h-65q-45 0 -62 -17q-22 -22 -51 -136zM444 617h-113l29 114q10 37 41 62l97 79l26 -27l-77 -79q-9 -11 -14 -23
l-2 -6h43z" />
    <glyph glyph-name="Hbar" unicode="&#x126;" horiz-adv-x="708" 
d="M736 700l-26 -104h94l-23 -91h-94l-125 -505h-112l78 316h-326l-78 -316h-112l125 505h-94l23 91h94l26 104h112l-26 -104h326l26 104h112zM226 410h326l23 95h-326z" />
    <glyph glyph-name="hbar" unicode="&#x127;" 
d="M110 0h-104l142 574h-80l20 82h81l16 64h104l-16 -64h135l-20 -82h-136l-25 -104q71 47 96.5 59t59.5 12h59q50 0 81 -31q43 -43 17 -145l-92 -365h-104l94 374q11 45 -5 61q-14 14 -50 14h-39q-29 0 -53 -7.5t-80 -33.5z" />
    <glyph glyph-name="Imacron" unicode="&#x12a;" horiz-adv-x="282" 
d="M130 0h-112l174 700h112zM114 760l19 85h302l-19 -85h-302z" />
    <glyph glyph-name="imacron" unicode="&#x12b;" horiz-adv-x="250" 
d="M245 540l-136 -540h-104l136 540h104zM60 610l19 85h302l-19 -85h-302z" />
    <glyph glyph-name="Ibreve" unicode="&#x12c;" horiz-adv-x="282" 
d="M130 0h-112l174 700h112zM277 828q59 0 86 52h78q-18 -61 -63 -93t-111 -32q-64 0 -98.5 34t-31.5 91h76q2 -21 19 -36.5t45 -15.5z" />
    <glyph glyph-name="ibreve" unicode="&#x12d;" horiz-adv-x="250" 
d="M245 540l-136 -540h-104l136 540h104zM224 678q59 0 86 52h78q-18 -61 -63 -93t-111 -32q-64 0 -98.5 34t-31.5 91h76q2 -21 19 -36.5t45 -15.5z" />
    <glyph glyph-name="Iogonek" unicode="&#x12e;" horiz-adv-x="282" 
d="M130 0h-60q-30 -23 -41 -37q-9 -10 -17 -43q-7 -31 -3 -38q4 -6 21 -6h28q11 0 15 4q7 5 18 50h73q-14 -56 -23.5 -77.5t-25.5 -32.5q-19 -14 -57 -14h-57q-46 0 -63 17q-20 21 -10 77q7 37 30 64q16 19 63 49l171 687h112z" />
    <glyph glyph-name="iogonek" unicode="&#x12f;" horiz-adv-x="250" 
d="M245 540l-136 -540h-52q-30 -23 -41 -37q-9 -10 -17 -43q-7 -31 -3 -38q4 -6 21 -6h28q11 0 15 4q7 5 18 50h73q-14 -56 -23.5 -77.5t-25.5 -32.5q-19 -14 -57 -14h-57q-46 0 -63 17q-20 21 -10 77q7 37 30 64q18 21 63 50l133 526h104zM300 730l-28 -111h-118l28 111
h118z" />
    <glyph glyph-name="Idotaccent" unicode="&#x130;" horiz-adv-x="282" 
d="M130 0h-112l174 700h112zM206 769l28 111h118l-28 -111h-118z" />
    <glyph glyph-name="dotlessi" unicode="&#x131;" horiz-adv-x="250" 
d="M245 540l-136 -540h-104l136 540h104z" />
    <glyph glyph-name="Kcommaaccent" unicode="&#x136;" horiz-adv-x="619" 
d="M567 700h130l-342 -342l193 -358h-121l-165 316h-60l-78 -316h-112l174 700h112l-72 -289h51zM195 -70h113l-29 -114q-10 -37 -41 -62l-97 -79l-26 27l77 79q9 11 14 23l2 6h-43z" />
    <glyph glyph-name="kcommaaccent" unicode="&#x137;" horiz-adv-x="522" 
d="M110 0h-104l179 720h104l-100 -402h36l229 222h125l-283 -272l155 -268h-116l-130 232h-37zM141 -70h113l-29 -114q-10 -37 -41 -62l-97 -79l-26 27l77 79q9 11 14 23l2 6h-43z" />
    <glyph glyph-name="Lacute" unicode="&#x139;" horiz-adv-x="548" 
d="M298 700l-150 -604h330l-23 -96h-443l174 700h112zM205 758v5l113 107h160v-5l-169 -107h-104z" />
    <glyph glyph-name="lacute" unicode="&#x13a;" horiz-adv-x="250" 
d="M110 0h-104l179 720h104zM190 758v5l113 107h160v-5l-169 -107h-104z" />
    <glyph glyph-name="Lcommaaccent" unicode="&#x13b;" horiz-adv-x="548" 
d="M298 700l-150 -604h330l-23 -96h-443l174 700h112zM166 -70h113l-29 -114q-10 -37 -41 -62l-97 -79l-26 27l77 79q9 11 14 23l2 6h-43z" />
    <glyph glyph-name="lcommaaccent" unicode="&#x13c;" horiz-adv-x="250" 
d="M110 0h-104l179 720h104zM-14 -70h113l-29 -114q-10 -37 -41 -62l-97 -79l-26 27l77 79q9 11 14 23l2 6h-43z" />
    <glyph glyph-name="Lcaron" unicode="&#x13d;" horiz-adv-x="548" 
d="M298 700l-150 -604h330l-23 -96h-443l174 700h112zM499 780l-19 -75q-10 -38 -22.5 -60.5t-41.5 -52.5l-60 -62l-32 21l42 81q11 22 11 46v82l5 20h117z" />
    <glyph glyph-name="lcaron" unicode="&#x13e;" horiz-adv-x="250" 
d="M110 0h-104l179 720h104zM477 800l-19 -75q-10 -38 -22.5 -60.5t-41.5 -52.5l-60 -62l-32 21l42 81q11 22 11 46v82l5 20h117z" />
    <glyph glyph-name="Ldot" unicode="&#x13f;" horiz-adv-x="548" 
d="M298 700l-150 -604h330l-23 -96h-443l174 700h112zM364 324l28 111h118l-28 -111h-118z" />
    <glyph glyph-name="ldot" unicode="&#x140;" horiz-adv-x="361" 
d="M255 304l28 111h118l-28 -111h-118zM110 0h-104l179 720h104z" />
    <glyph glyph-name="Lslash" unicode="&#x141;" horiz-adv-x="562" 
d="M312 700l-69 -279l181 50l-24 -94l-181 -50l-57 -231h330l-23 -96h-443l73 294l-100 -27l24 94l99 27l78 312h112z" />
    <glyph glyph-name="lslash" unicode="&#x142;" horiz-adv-x="270" 
d="M120 0h-104l77 312l-90 -25l23 94l91 25l78 314h104l-71 -284l90 25l-23 -94l-90 -25z" />
    <glyph glyph-name="Nacute" unicode="&#x143;" horiz-adv-x="709" 
d="M737 700l-174 -700h-104q-22 0 -30.5 6.5t-13.5 26.5l-141 523h-15l-138 -556h-109l174 700h119q22 0 30 -6.5t13 -26.5l133 -499h15l132 532h109zM406 758v5l113 107h160v-5l-169 -107h-104z" />
    <glyph glyph-name="nacute" unicode="&#x144;" 
d="M110 0h-104l136 540h102l-18 -71q72 48 97.5 60t59.5 12h59q50 0 81 -31q43 -43 17 -145l-92 -365h-104l94 374q11 45 -5 61q-14 14 -50 14h-39q-29 0 -53 -7.5t-78 -32.5zM312 608v5l113 107h160v-5l-169 -107h-104z" />
    <glyph glyph-name="Ncommaaccent" unicode="&#x145;" horiz-adv-x="709" 
d="M737 700l-174 -700h-104q-22 0 -30.5 6.5t-13.5 26.5l-141 523h-15l-138 -556h-109l174 700h119q22 0 30 -6.5t13 -26.5l133 -499h15l132 532h109zM215 -70h113l-29 -114q-10 -37 -41 -62l-97 -79l-26 27l77 79q9 11 14 23l2 6h-43z" />
    <glyph glyph-name="ncommaaccent" unicode="&#x146;" 
d="M110 0h-104l136 540h102l-18 -71q72 48 97.5 60t59.5 12h59q50 0 81 -31q43 -43 17 -145l-92 -365h-104l94 374q11 45 -5 61q-14 14 -50 14h-39q-29 0 -53 -7.5t-78 -32.5zM159 -70h113l-29 -114q-10 -37 -41 -62l-97 -79l-26 27l77 79q9 11 14 23l2 6h-43z" />
    <glyph glyph-name="Ncaron" unicode="&#x147;" horiz-adv-x="709" 
d="M737 700l-174 -700h-104q-22 0 -30.5 6.5t-13.5 26.5l-141 523h-15l-138 -556h-109l174 700h119q22 0 30 -6.5t13 -26.5l133 -499h15l132 532h109zM429 880l59 -52l89 52h86v-5l-129 -117h-120l-71 117v5h86z" />
    <glyph glyph-name="ncaron" unicode="&#x148;" 
d="M110 0h-104l136 540h102l-18 -71q72 48 97.5 60t59.5 12h59q50 0 81 -31q43 -43 17 -145l-92 -365h-104l94 374q11 45 -5 61q-14 14 -50 14h-39q-29 0 -53 -7.5t-78 -32.5zM335 730l59 -52l89 52h86v-5l-129 -117h-120l-71 117v5h86z" />
    <glyph glyph-name="Omacron" unicode="&#x14c;" horiz-adv-x="672" 
d="M366 0h-170q-79 0 -111 32q-20 20 -28.5 51t-3 100.5t31.5 176.5q26 105 50.5 171t37.5 86t30 37q29 29 59 37.5t84 8.5h170q79 0 111 -32q20 -20 28.5 -51t3 -100.5t-31.5 -176.5q-26 -105 -50.5 -171t-37.5 -86t-30 -37q-29 -29 -59 -37.5t-84 -8.5zM196 350
q-24 -96 -32.5 -151.5t-6 -70t10.5 -22.5q11 -11 47 -11h162q42 0 58 16q29 29 81 239q24 96 32.5 151.5t6 70t-10.5 22.5q-11 11 -47 11h-162q-42 0 -58 -16q-29 -29 -81 -239zM309 760l19 85h302l-19 -85h-302z" />
    <glyph glyph-name="omacron" unicode="&#x14d;" horiz-adv-x="573" 
d="M511 260q-26 -109 -44.5 -151.5t-43.5 -67.5q-41 -41 -130 -41h-129q-66 0 -98 32q-27 27 -29 76.5t25 171.5q26 109 44.5 151.5t43.5 67.5q41 41 130 41h129q66 0 98 -32q27 -27 29.5 -76.5t-25.5 -171.5zM164 270q-37 -150 -18 -169q10 -10 45 -10h113q38 0 51 13
q17 17 54 166q37 150 18 169q-10 10 -45 10h-113q-38 0 -51 -13q-17 -17 -54 -166zM222 610l19 85h302l-19 -85h-302z" />
    <glyph glyph-name="Obreve" unicode="&#x14e;" horiz-adv-x="672" 
d="M366 0h-170q-79 0 -111 32q-20 20 -28.5 51t-3 100.5t31.5 176.5q26 105 50.5 171t37.5 86t30 37q29 29 59 37.5t84 8.5h170q79 0 111 -32q20 -20 28.5 -51t3 -100.5t-31.5 -176.5q-26 -105 -50.5 -171t-37.5 -86t-30 -37q-29 -29 -59 -37.5t-84 -8.5zM196 350
q-24 -96 -32.5 -151.5t-6 -70t10.5 -22.5q11 -11 47 -11h162q42 0 58 16q29 29 81 239q24 96 32.5 151.5t6 70t-10.5 22.5q-11 11 -47 11h-162q-42 0 -58 -16q-29 -29 -81 -239zM472 828q59 0 86 52h78q-18 -61 -63 -93t-111 -32q-64 0 -98.5 34t-31.5 91h76q2 -21 19 -36.5
t45 -15.5z" />
    <glyph glyph-name="obreve" unicode="&#x14f;" horiz-adv-x="573" 
d="M511 260q-26 -109 -44.5 -151.5t-43.5 -67.5q-41 -41 -130 -41h-129q-66 0 -98 32q-27 27 -29 76.5t25 171.5q26 109 44.5 151.5t43.5 67.5q41 41 130 41h129q66 0 98 -32q27 -27 29.5 -76.5t-25.5 -171.5zM164 270q-37 -150 -18 -169q10 -10 45 -10h113q38 0 51 13
q17 17 54 166q37 150 18 169q-10 10 -45 10h-113q-38 0 -51 -13q-17 -17 -54 -166zM386 678q59 0 86 52h78q-18 -61 -63 -93t-111 -32q-64 0 -98.5 34t-31.5 91h76q2 -21 19 -36.5t45 -15.5z" />
    <glyph glyph-name="Ohungarumlaut" unicode="&#x150;" horiz-adv-x="672" 
d="M366 0h-170q-79 0 -111 32q-20 20 -28.5 51t-3 100.5t31.5 176.5q26 105 50.5 171t37.5 86t30 37q29 29 59 37.5t84 8.5h170q79 0 111 -32q20 -20 28.5 -51t3 -100.5t-31.5 -176.5q-26 -105 -50.5 -171t-37.5 -86t-30 -37q-29 -29 -59 -37.5t-84 -8.5zM196 350
q-24 -96 -32.5 -151.5t-6 -70t10.5 -22.5q11 -11 47 -11h162q42 0 58 16q29 29 81 239q24 96 32.5 151.5t6 70t-10.5 22.5q-11 11 -47 11h-162q-42 0 -58 -16q-29 -29 -81 -239zM278 758v5l112 107h148v-5l-165 -107h-95zM494 758v5l112 107h148v-5l-165 -107h-95z" />
    <glyph glyph-name="ohungarumlaut" unicode="&#x151;" horiz-adv-x="573" 
d="M511 260q-26 -109 -44.5 -151.5t-43.5 -67.5q-41 -41 -130 -41h-129q-66 0 -98 32q-27 27 -29 76.5t25 171.5q26 109 44.5 151.5t43.5 67.5q41 41 130 41h129q66 0 98 -32q27 -27 29.5 -76.5t-25.5 -171.5zM164 270q-37 -150 -18 -169q10 -10 45 -10h113q38 0 51 13
q17 17 54 166q37 150 18 169q-10 10 -45 10h-113q-38 0 -51 -13q-17 -17 -54 -166zM191 608v5l112 107h148v-5l-165 -107h-95zM407 608v5l112 107h148v-5l-165 -107h-95z" />
    <glyph glyph-name="OE" unicode="&#x152;" horiz-adv-x="987" 
d="M397 700h651l-24 -95h-355l-48 -194h292l-24 -95h-292l-54 -221h354l-23 -95h-628q-64 0 -100 11t-62 37q-69 69 -10 313q50 204 120 274q37 37 85 51t118 14zM263 94h168l127 512h-184q-70 0 -101 -31q-23 -23 -42 -68.5t-47 -156.5q-29 -114 -31 -165t20 -70
q13 -13 32 -17t58 -4z" />
    <glyph glyph-name="oe" unicode="&#x153;" horiz-adv-x="907" 
d="M648 0h-126q-66 0 -98 32l-11 12l-3 -3q-41 -41 -130 -41h-116q-66 0 -98 32q-27 27 -29 76.5t25 171.5q26 109 44.5 151.5t43.5 67.5q41 41 130 41h116q66 0 98 -32q6 -6 10 -13l4 4q41 41 130 41h110q66 0 98 -32q28 -28 29.5 -79.5t-30.5 -178.5q-3 -14 -16 -14h-326
q-27 -119 -10 -136q10 -10 45 -10h108q38 0 50 12t27 66h101q-28 -99 -61 -132q-37 -36 -115 -36zM164 270q-37 -150 -18 -169q10 -10 45 -10h113q38 0 51 13q17 17 54 166q37 150 18 169q-10 10 -45 10h-113q-38 0 -51 -13q-17 -17 -54 -166zM565 437q-16 -16 -42 -119h236
q24 104 8 122q-10 10 -45 10h-106q-38 0 -51 -13z" />
    <glyph glyph-name="Racute" unicode="&#x154;" horiz-adv-x="661" 
d="M486 605h-212l-56 -225h226q34 0 46 10q28 23 47 104q19 83 0 102q-9 9 -51 9zM568 191q-32 -150 -36 -191h-112q3 53 35 194q13 59 -6 79q-18 17 -84 17h-169l-72 -290h-112l174 700h330q83 0 113 -30q49 -49 20 -176q-20 -87 -55.5 -121t-102.5 -42v-2q54 -14 72.5 -42
t4.5 -96zM368 758v5l113 107h160v-5l-169 -107h-104z" />
    <glyph glyph-name="racute" unicode="&#x155;" horiz-adv-x="378" 
d="M109 0h-104l136 540h102l-18 -73q52 43 78.5 58.5t55.5 15.5h59l-27 -107h-61q-60 0 -117 -21zM231 608v5l113 107h160v-5l-169 -107h-104z" />
    <glyph glyph-name="Rcommaaccent" unicode="&#x156;" horiz-adv-x="661" 
d="M486 605h-212l-56 -225h226q34 0 46 10q28 23 47 104q19 83 0 102q-9 9 -51 9zM568 191q-32 -150 -36 -191h-112q3 53 35 194q13 59 -6 79q-18 17 -84 17h-169l-72 -290h-112l174 700h330q83 0 113 -30q49 -49 20 -176q-20 -87 -55.5 -121t-102.5 -42v-2q54 -14 72.5 -42
t4.5 -96zM199 -70h113l-29 -114q-10 -37 -41 -62l-97 -79l-26 27l77 79q9 11 14 23l2 6h-43z" />
    <glyph glyph-name="rcommaaccent" unicode="&#x157;" horiz-adv-x="378" 
d="M109 0h-104l136 540h102l-18 -73q52 43 78.5 58.5t55.5 15.5h59l-27 -107h-61q-60 0 -117 -21zM-18 -70h113l-29 -114q-10 -37 -41 -62l-97 -79l-26 27l77 79q9 11 14 23l2 6h-43z" />
    <glyph glyph-name="Rcaron" unicode="&#x158;" horiz-adv-x="661" 
d="M568 191q-32 -150 -36 -191h-112q3 53 35 194q13 59 -6 79q-18 17 -84 17h-169l-72 -290h-112l174 700h330q83 0 113 -30q49 -49 20 -176q-20 -87 -55.5 -121t-102.5 -42v-2q54 -14 72.5 -42t4.5 -96zM486 605h-212l-56 -225h226q34 0 46 10q28 23 47 104q19 83 0 102
q-9 9 -51 9zM391 880l59 -52l89 52h86v-5l-129 -117h-120l-71 117v5h86z" />
    <glyph glyph-name="rcaron" unicode="&#x159;" horiz-adv-x="378" 
d="M109 0h-104l136 540h102l-18 -73q52 43 78.5 58.5t55.5 15.5h59l-27 -107h-61q-60 0 -117 -21zM254 730l59 -52l89 52h86v-5l-129 -117h-120l-71 117v5h86z" />
    <glyph glyph-name="Sacute" unicode="&#x15a;" horiz-adv-x="641" 
d="M51 220h106q-25 -106 -13 -118q7 -7 37 -7h190q39 0 51 12q14 14 33 90q15 61 1 75q-10 10 -37 15l-178 35q-45 9 -65.5 17.5t-36.5 24.5q-20 20 -22.5 53t11.5 97q21 99 65 143q43 43 128 43h191q75 0 103 -28q24 -24 26 -64t-16 -123h-108q18 100 7 111q-9 9 -41 9
h-166q-38 0 -50 -12t-31 -84q-15 -59 -1 -73q10 -10 39 -16l178 -36q73 -14 100 -41q22 -22 25 -54.5t-12 -95.5q-18 -70 -30.5 -98.5t-37.5 -53.5q-41 -41 -129 -41h-222q-70 0 -98 28q-21 26 -19.5 69t22.5 123zM367 758v5l113 107h160v-5l-169 -107h-104z" />
    <glyph glyph-name="sacute" unicode="&#x15b;" horiz-adv-x="532" 
d="M32 170h92q-14 -65 -5 -75q9 -9 35 -9h141q29 0 37 8q12 12 23 57q10 40 0 50q-8 8 -29 12l-138 28q-65 12 -87 34q-31 31 -8 126q17 72 52 107q32 32 96 32h172q47 0 74 -27q36 -36 10 -139h-94q13 57 1 69q-11 11 -40 11h-118q-28 0 -37 -9q-10 -10 -21 -52
q-10 -41 0 -51q9 -9 29 -12l138 -26q65 -12 87 -34q30 -30 7 -127q-18 -77 -53 -112q-31 -31 -95 -31h-197q-45 0 -70 25q-35 35 -2 145zM276 608v5l113 107h160v-5l-169 -107h-104z" />
    <glyph glyph-name="Scedilla" unicode="&#x15e;" horiz-adv-x="641" 
d="M51 220h106q-25 -106 -13 -118q7 -7 37 -7h190q39 0 51 12q14 14 33 90q15 61 1 75q-10 10 -37 15l-178 35q-45 9 -65.5 17.5t-36.5 24.5q-20 20 -22.5 53t11.5 97q21 99 65 143q43 43 128 43h191q75 0 103 -28q24 -24 26 -64t-16 -123h-108q18 100 7 111q-9 9 -41 9
h-166q-38 0 -50 -12t-31 -84q-15 -59 -1 -73q10 -10 39 -16l178 -36q73 -14 100 -41q22 -22 25 -54.5t-12 -95.5q-18 -70 -30.5 -98.5t-37.5 -53.5q-41 -41 -129 -41h-222q-70 0 -98 28q-21 26 -19.5 69t22.5 123zM232 -90h-40l16 60h47q51 0 66 -15q19 -19 8 -70
q-9 -38 -30 -59q-20 -20 -73 -20h-76l-47 40l5 20h119q16 0 21 4q5 3 8 17q3 13 -1 18t-23 5z" />
    <glyph glyph-name="scedilla" unicode="&#x15f;" horiz-adv-x="532" 
d="M32 170h92q-14 -65 -5 -75q9 -9 35 -9h141q29 0 37 8q12 12 23 57q10 40 0 50q-8 8 -29 12l-138 28q-65 12 -87 34q-31 31 -8 126q17 72 52 107q32 32 96 32h172q47 0 74 -27q36 -36 10 -139h-94q13 57 1 69q-11 11 -40 11h-118q-28 0 -37 -9q-10 -10 -21 -52
q-10 -41 0 -51q9 -9 29 -12l138 -26q65 -12 87 -34q30 -30 7 -127q-18 -77 -53 -112q-31 -31 -95 -31h-197q-45 0 -70 25q-35 35 -2 145zM172 -90h-40l16 60h47q51 0 66 -15q19 -19 8 -70q-9 -38 -30 -59q-20 -20 -73 -20h-76l-47 40l5 20h119q16 0 21 4q5 3 8 17
q3 13 -1 18t-23 5z" />
    <glyph glyph-name="Scaron" unicode="&#x160;" horiz-adv-x="641" 
d="M51 220h106q-25 -106 -13 -118q7 -7 37 -7h190q39 0 51 12q14 14 33 90q15 61 1 75q-10 10 -37 15l-178 35q-45 9 -65.5 17.5t-36.5 24.5q-20 20 -22.5 53t11.5 97q21 99 65 143q43 43 128 43h191q75 0 103 -28q24 -24 26 -64t-16 -123h-108q18 100 7 111q-9 9 -41 9
h-166q-38 0 -50 -12t-31 -84q-15 -59 -1 -73q10 -10 39 -16l178 -36q73 -14 100 -41q22 -22 25 -54.5t-12 -95.5q-18 -70 -30.5 -98.5t-37.5 -53.5q-41 -41 -129 -41h-222q-70 0 -98 28q-21 26 -19.5 69t22.5 123zM390 880l59 -52l89 52h86v-5l-129 -117h-120l-71 117v5h86z
" />
    <glyph glyph-name="scaron" unicode="&#x161;" horiz-adv-x="532" 
d="M32 170h92q-14 -65 -5 -75q9 -9 35 -9h141q29 0 37 8q12 12 23 57q10 40 0 50q-8 8 -29 12l-138 28q-65 12 -87 34q-31 31 -8 126q17 72 52 107q32 32 96 32h172q47 0 74 -27q36 -36 10 -139h-94q13 57 1 69q-11 11 -40 11h-118q-28 0 -37 -9q-10 -10 -21 -52
q-10 -41 0 -51q9 -9 29 -12l138 -26q65 -12 87 -34q30 -30 7 -127q-18 -77 -53 -112q-31 -31 -95 -31h-197q-45 0 -70 25q-35 35 -2 145zM299 730l59 -52l89 52h86v-5l-129 -117h-120l-71 117v5h86z" />
    <glyph glyph-name="Tcommaaccent" unicode="&#x162;" horiz-adv-x="586" 
d="M648 605h-216l-150 -605h-112l150 605h-216l24 95h544zM153 -70h113l-29 -114q-10 -37 -41 -62l-97 -79l-26 27l77 79q9 11 14 23l2 6h-43z" />
    <glyph glyph-name="tcommaaccent" unicode="&#x163;" horiz-adv-x="381" 
d="M261 450l-80 -317q-6 -25 3 -34q8 -8 36 -8h79l-17 -69l-66 -17q-38 -9 -65 -9q-41 0 -65 24q-31 31 -12 105l82 325h-93l22 90h94l34 134h104l-34 -134h125l-22 -90h-125zM86 -70h113l-29 -114q-10 -37 -41 -62l-97 -79l-26 27l77 79q9 11 14 23l2 6h-43z" />
    <glyph glyph-name="Tcaron" unicode="&#x164;" horiz-adv-x="586" 
d="M648 605h-216l-150 -605h-112l150 605h-216l24 95h544zM367 880l59 -52l89 52h86v-5l-129 -117h-120l-71 117v5h86z" />
    <glyph glyph-name="tcaron" unicode="&#x165;" horiz-adv-x="381" 
d="M261 450l-80 -317q-6 -25 3 -34q8 -8 36 -8h79l-17 -69l-66 -17q-38 -9 -65 -9q-41 0 -65 24q-31 31 -12 105l82 325h-93l22 90h94l34 134h104l-34 -134h125l-22 -90h-125zM515 844l-19 -75q-10 -38 -22.5 -60.5t-41.5 -52.5l-60 -62l-32 21l42 81q11 22 11 46v82l5 20
h117z" />
    <glyph glyph-name="Umacron" unicode="&#x16a;" horiz-adv-x="694" 
d="M297 700l-102 -410q-16 -63 -21.5 -100t-3 -52t10.5 -23q17 -17 108 -17h45q55 0 77.5 4.5t34.5 16.5q9 9 15.5 19.5t18 45.5t26.5 96l104 420h112l-101 -409q-29 -116 -49.5 -163t-48.5 -75q-31 -31 -74 -42t-116 -11h-81q-114 0 -156 42q-32 32 -35 82.5t26 177.5
l98 398h112zM312 760l19 85h302l-19 -85h-302z" />
    <glyph glyph-name="umacron" unicode="&#x16b;" 
d="M475 540h104l-136 -540h-102l17 70q-71 -47 -97 -59t-59 -12h-59q-50 0 -81 31q-43 43 -17 145l92 365h104l-94 -374q-11 -45 5 -61q14 -14 50 -14h39q29 0 53 7.5t78 32.5zM224 610l19 85h302l-19 -85h-302z" />
    <glyph glyph-name="Ubreve" unicode="&#x16c;" horiz-adv-x="694" 
d="M297 700l-102 -410q-16 -63 -21.5 -100t-3 -52t10.5 -23q17 -17 108 -17h45q55 0 77.5 4.5t34.5 16.5q9 9 15.5 19.5t18 45.5t26.5 96l104 420h112l-101 -409q-29 -116 -49.5 -163t-48.5 -75q-31 -31 -74 -42t-116 -11h-81q-114 0 -156 42q-32 32 -35 82.5t26 177.5
l98 398h112zM475 828q59 0 86 52h78q-18 -61 -63 -93t-111 -32q-64 0 -98.5 34t-31.5 91h76q2 -21 19 -36.5t45 -15.5z" />
    <glyph glyph-name="ubreve" unicode="&#x16d;" 
d="M475 540h104l-136 -540h-102l17 70q-71 -47 -97 -59t-59 -12h-59q-50 0 -81 31q-43 43 -17 145l92 365h104l-94 -374q-11 -45 5 -61q14 -14 50 -14h39q29 0 53 7.5t78 32.5zM388 678q59 0 86 52h78q-18 -61 -63 -93t-111 -32q-64 0 -98.5 34t-31.5 91h76q2 -21 19 -36.5
t45 -15.5z" />
    <glyph glyph-name="Uring" unicode="&#x16e;" horiz-adv-x="694" 
d="M297 700l-102 -410q-16 -63 -21.5 -100t-3 -52t10.5 -23q17 -17 108 -17h45q55 0 77.5 4.5t34.5 16.5q9 9 15.5 19.5t18 45.5t26.5 96l104 420h112l-101 -409q-29 -116 -49.5 -163t-48.5 -75q-31 -31 -74 -42t-116 -11h-81q-114 0 -156 42q-32 32 -35 82.5t26 177.5
l98 398h112zM451 816h55q22 0 30 8q9 9 15 35q7 30 -2 39q-6 6 -28 6h-55q-22 0 -29 -7q-10 -10 -16 -36q-7 -30 2 -39q6 -6 28 -6zM617 853q-9 -41 -34 -66q-27 -27 -81 -27h-66q-47 0 -67 20q-28 28 -14 87q10 42 35 67q26 26 80 26h66q47 0 69 -22q26 -26 12 -85z" />
    <glyph glyph-name="uring" unicode="&#x16f;" 
d="M475 540h104l-136 -540h-102l17 70q-71 -47 -97 -59t-59 -12h-59q-50 0 -81 31q-43 43 -17 145l92 365h104l-94 -374q-11 -45 5 -61q14 -14 50 -14h39q29 0 53 7.5t78 32.5zM530 703q-9 -41 -34 -66q-27 -27 -81 -27h-66q-47 0 -67 20q-28 28 -14 87q10 42 35 67
q26 26 80 26h66q47 0 69 -22q26 -26 12 -85zM364 666h55q22 0 30 8q9 9 15 35q7 30 -2 39q-6 6 -28 6h-55q-22 0 -29 -7q-10 -10 -16 -36q-7 -30 2 -39q6 -6 28 -6z" />
    <glyph glyph-name="Uhungarumlaut" unicode="&#x170;" horiz-adv-x="694" 
d="M297 700l-102 -410q-16 -63 -21.5 -100t-3 -52t10.5 -23q17 -17 108 -17h45q55 0 77.5 4.5t34.5 16.5q9 9 15.5 19.5t18 45.5t26.5 96l104 420h112l-101 -409q-29 -116 -49.5 -163t-48.5 -75q-31 -31 -74 -42t-116 -11h-81q-114 0 -156 42q-32 32 -35 82.5t26 177.5
l98 398h112zM281 758v5l112 107h148v-5l-165 -107h-95zM497 758v5l112 107h148v-5l-165 -107h-95z" />
    <glyph glyph-name="uhungarumlaut" unicode="&#x171;" 
d="M475 540h104l-136 -540h-102l17 70q-71 -47 -97 -59t-59 -12h-59q-50 0 -81 31q-43 43 -17 145l92 365h104l-94 -374q-11 -45 5 -61q14 -14 50 -14h39q29 0 53 7.5t78 32.5zM409 608v5l112 107h148v-5l-165 -107h-95zM193 608v5l112 107h148v-5l-165 -107h-95z" />
    <glyph glyph-name="Uogonek" unicode="&#x172;" horiz-adv-x="694" 
d="M253 -80q-7 -31 -3 -38q4 -6 21 -6h28q11 0 15 4q7 5 18 50h73q-14 -56 -23.5 -77.5t-25.5 -32.5q-19 -14 -57 -14h-57q-46 0 -63 17q-20 21 -10 77q7 37 30 64q13 16 43 36q-105 1 -146 42q-32 32 -35 82.5t26 177.5l98 398h112l-102 -410q-16 -63 -21.5 -100t-3 -52
t10.5 -23q17 -17 108 -17h45q55 0 77.5 4.5t34.5 16.5q9 9 15.5 19.5t18 45.5t26.5 96l104 420h112l-101 -409q-29 -116 -49.5 -163t-48.5 -75q-31 -31 -74 -42t-116 -11h-22q-30 -23 -41 -37q-9 -10 -17 -43z" />
    <glyph glyph-name="uogonek" unicode="&#x173;" 
d="M475 540h104l-136 -540h-66q-30 -23 -41 -37q-9 -10 -17 -43q-7 -31 -3 -38q4 -6 21 -6h28q11 0 15 4q7 5 18 50h73q-14 -56 -23.5 -77.5t-25.5 -32.5q-19 -14 -57 -14h-57q-46 0 -63 17q-20 21 -10 77q7 37 30 64q16 19 82 61l11 45q-71 -47 -97 -59t-59 -12h-59
q-50 0 -81 31q-43 43 -17 145l92 365h104l-94 -374q-11 -45 5 -61q14 -14 50 -14h39q29 0 53 7.5t78 32.5z" />
    <glyph glyph-name="Wcircumflex" unicode="&#x174;" horiz-adv-x="931" 
d="M534 702h56q34 0 43.5 -8t9.5 -33l-7 -520h13l243 559h117l-314 -679q-7 -15 -15.5 -19.5t-30.5 -4.5h-62q-35 0 -44.5 6.5t-8.5 31.5l8 516h-13l-253 -528q-7 -16 -16 -21t-30 -5h-64q-35 0 -44.5 6.5t-8.5 31.5l22 665h112l-29 -559h13l250 528q10 20 20.5 26.5
t32.5 6.5zM658 758l-59 52l-89 -52h-86v5l129 117h120l71 -117v-5h-86z" />
    <glyph glyph-name="wcircumflex" unicode="&#x175;" horiz-adv-x="750" 
d="M404 542h58q21 0 30.5 -8t9.5 -28l1 -389h10l175 423h107l-233 -514q-13 -28 -43 -28h-69q-24 0 -33 7.5t-8 30.5l5 376h-8l-184 -386q-14 -28 -43 -28h-70q-24 0 -33 7.5t-8 30.5l21 504h100l-26 -423h10l187 397q13 28 44 28zM531 608l-59 52l-89 -52h-86v5l129 117
h120l71 -117v-5h-86z" />
    <glyph glyph-name="Ycircumflex" unicode="&#x176;" horiz-adv-x="595" 
d="M701 700l-344 -420l-69 -280h-112l71 286l-140 414h116l97 -310h8l246 310h127zM487 758l-59 52l-89 -52h-86v5l129 117h120l71 -117v-5h-86z" />
    <glyph glyph-name="ycircumflex" unicode="&#x177;" horiz-adv-x="536" 
d="M82 540h109l48 -391h6l220 391h117l-374 -625q-40 -67 -113 -67q-36 0 -106 7l22 86h92q15 0 27 18l29 47zM426 608l-59 52l-89 -52h-86v5l129 117h120l71 -117v-5h-86z" />
    <glyph glyph-name="Ydieresis" unicode="&#x178;" horiz-adv-x="595" 
d="M701 700l-344 -420l-69 -280h-112l71 286l-140 414h116l97 -310h8l246 310h127zM269 760l27 110h111l-27 -110h-111zM454 760l27 110h111l-27 -110h-111z" />
    <glyph glyph-name="Zacute" unicode="&#x179;" horiz-adv-x="611" 
d="M523 95l-23 -95h-521l17 73l514 532h-362l24 95h506l-17 -73l-515 -532h377zM360 758v5l113 107h160v-5l-169 -107h-104z" />
    <glyph glyph-name="zacute" unicode="&#x17a;" horiz-adv-x="491" 
d="M409 92l-23 -92h-418l14 64l375 384h-263l23 92h408l-13 -58l-381 -390h278zM260 608v5l113 107h160v-5l-169 -107h-104z" />
    <glyph glyph-name="Zdotaccent" unicode="&#x17b;" horiz-adv-x="611" 
d="M523 95l-23 -95h-521l17 73l514 532h-362l24 95h506l-17 -73l-515 -532h377zM373 769l28 111h118l-28 -111h-118z" />
    <glyph glyph-name="zdotaccent" unicode="&#x17c;" horiz-adv-x="491" 
d="M409 92l-23 -92h-418l14 64l375 384h-263l23 92h408l-13 -58l-381 -390h278zM274 619l28 111h118l-28 -111h-118z" />
    <glyph glyph-name="Zcaron" unicode="&#x17d;" horiz-adv-x="611" 
d="M523 95l-23 -95h-521l17 73l514 532h-362l24 95h506l-17 -73l-515 -532h377zM383 880l59 -52l89 52h86v-5l-129 -117h-120l-71 117v5h86z" />
    <glyph glyph-name="zcaron" unicode="&#x17e;" horiz-adv-x="491" 
d="M409 92l-23 -92h-418l14 64l375 384h-263l23 92h408l-13 -58l-381 -390h278zM283 730l59 -52l89 52h86v-5l-129 -117h-120l-71 117v5h86z" />
    <glyph glyph-name="Aringacute" unicode="&#x1fa;" horiz-adv-x="646" 
d="M572 745q-9 -41 -34 -66q-12 -12 -27 -18l53 -661h-109l-13 198h-267l-109 -198h-117l383 665q-6 4 -8 7q-28 28 -14 87q10 42 35 67q26 26 80 26h66q47 0 69 -22q26 -26 12 -85zM401 605l-173 -314h208l-20 314h-15zM424 900v5l113 107h160v-5l-169 -107h-104zM406 708
h55q22 0 30 8q9 9 15 35q7 30 -2 39q-6 6 -28 6h-55q-22 0 -29 -7q-10 -10 -16 -36q-7 -30 2 -39q6 -6 28 -6z" />
    <glyph glyph-name="aringacute" unicode="&#x1fb;" horiz-adv-x="560" 
d="M422 0h-95l16 70q-64 -43 -98 -57t-69 -14h-48q-57 0 -85 28q-36 36 -13 135q16 68 49 101q26 26 68.5 37t122.5 11q83 0 127 -16l15 61q17 72 2 87q-11 11 -41 11h-94q-36 0 -47 -11q-10 -10 -27 -69h-100q26 98 56 128q38 38 107 38h146q56 0 87 -31q40 -40 14 -142z
M528 703q-9 -41 -34 -66q-27 -27 -81 -27h-66q-47 0 -67 20q-28 28 -14 87q10 42 35 67q26 26 80 26h66q47 0 69 -22q26 -26 12 -85zM216 86q30 0 54.5 8.5t85.5 37.5l25 103h-133q-47 0 -65.5 -3.5t-29.5 -14.5q-12 -12 -22 -53q-14 -57 -1 -70q8 -8 39 -8h47zM380 868v5
l113 107h160v-5l-169 -107h-104zM362 666h55q22 0 30 8q9 9 15 35q7 30 -2 39q-6 6 -28 6h-55q-22 0 -29 -7q-10 -10 -16 -36q-7 -30 2 -39q6 -6 28 -6z" />
    <glyph glyph-name="AEacute" unicode="&#x1fc;" horiz-adv-x="957" 
d="M-70 0l513 661q18 23 31.5 31t39.5 8h504l-24 -95h-355l-48 -194h292l-24 -95h-292l-54 -221h354l-23 -95h-466l54 217h-213l-166 -217h-123zM520 610l-230 -300h165l75 300h-10zM560 758v5l113 107h160v-5l-169 -107h-104z" />
    <glyph glyph-name="aeacute" unicode="&#x1fd;" horiz-adv-x="887" 
d="M270 311q83 0 127 -16l15 61q17 72 2 87q-11 11 -41 11h-94q-36 0 -47 -11q-10 -10 -27 -69h-100q26 98 56 128q38 38 107 38h142q56 0 87 -31l3 -4q41 35 124 35h104q66 0 98 -32q28 -28 29.5 -79.5t-30.5 -178.5q-3 -14 -16 -14h-326q-27 -119 -10 -136q10 -10 45 -10
h108q38 0 50 12t27 66h101q-28 -99 -61 -132q-37 -36 -115 -36h-136q-66 0 -98 32q-19 17 -26 49q-74 -50 -109.5 -66t-72.5 -16h-58q-57 0 -85 28q-36 36 -13 135q16 68 49 101q26 26 68.5 37t122.5 11zM216 86q29 0 53 8.5t80 34.5q11 5 17 8q3 41 16 98h-134
q-47 0 -65.5 -3.5t-29.5 -14.5q-12 -12 -22 -53q-14 -57 -1 -70q8 -8 39 -8h47zM739 318q24 106 8 122q-10 10 -45 10h-106q-38 0 -51 -13q-16 -16 -42 -119h236zM452 608v5l113 107h160v-5l-169 -107h-104z" />
    <glyph glyph-name="Oslashacute" unicode="&#x1fe;" horiz-adv-x="672" 
d="M366 0h-170q-19 0 -27 1l-38 -54h-108l61 86q-20 20 -28.5 51t-2.5 100.5t32 175.5q26 105 50.5 171t37.5 86t30 37q29 29 59 37.5t84 8.5h170q26 0 45 -3l39 56h108l-70 -98q49 -69 -11 -315q-26 -105 -50.5 -171t-37.5 -86t-30 -37q-29 -29 -59 -37.5t-84 -8.5z
M196 350q-45 -178 -38 -222l339 477h-162q-42 0 -58 -16q-29 -29 -81 -239zM516 350q35 140 38 196l-319 -451h142q42 0 58 16q29 29 81 239zM397 758v5l113 107h160v-5l-169 -107h-104z" />
    <glyph glyph-name="oslashacute" unicode="&#x1ff;" horiz-adv-x="573" 
d="M511 260q-26 -109 -44.5 -151.5t-43.5 -67.5q-41 -41 -130 -41h-129q-25 0 -43 3l-42 -53h-102l77 96q-19 23 -18 78t26 156q26 109 44.5 151.5t43.5 67.5q41 41 130 41h129q20 0 44 -4l43 54h102l-79 -97q35 -54 -8 -233zM164 270q-22 -87 -25 -128l244 307h-1h-113
q-38 0 -51 -13q-17 -17 -54 -166zM409 270q19 80 25 125l-243 -304h113q38 0 51 13q17 17 54 166zM301 608v5l113 107h160v-5l-169 -107h-104z" />
    <glyph glyph-name="Scommaaccent" unicode="&#x218;" horiz-adv-x="641" 
d="M51 220h106q-25 -106 -13 -118q7 -7 37 -7h190q39 0 51 12q14 14 33 90q15 61 1 75q-10 10 -37 15l-178 35q-45 9 -65.5 17.5t-36.5 24.5q-20 20 -22.5 53t11.5 97q21 99 65 143q43 43 128 43h191q75 0 103 -28q24 -24 26 -64t-16 -123h-108q18 100 7 111q-9 9 -41 9
h-166q-38 0 -50 -12t-31 -84q-15 -59 -1 -73q10 -10 39 -16l178 -36q73 -14 100 -41q22 -22 25 -54.5t-12 -95.5q-18 -70 -30.5 -98.5t-37.5 -53.5q-41 -41 -129 -41h-222q-70 0 -98 28q-21 26 -19.5 69t22.5 123zM200 -70h113l-29 -114q-10 -37 -41 -62l-97 -79l-26 27
l77 79q9 11 14 23l2 6h-43z" />
    <glyph glyph-name="scommaaccent" unicode="&#x219;" horiz-adv-x="532" 
d="M32 170h92q-14 -65 -5 -75q9 -9 35 -9h141q29 0 37 8q12 12 23 57q10 40 0 50q-8 8 -29 12l-138 28q-65 12 -87 34q-31 31 -8 126q17 72 52 107q32 32 96 32h172q47 0 74 -27q36 -36 10 -139h-94q13 57 1 69q-11 11 -40 11h-118q-28 0 -37 -9q-10 -10 -21 -52
q-10 -41 0 -51q9 -9 29 -12l138 -26q65 -12 87 -34q30 -30 7 -127q-18 -77 -53 -112q-31 -31 -95 -31h-197q-45 0 -70 25q-35 35 -2 145zM139 -70h113l-29 -114q-10 -37 -41 -62l-97 -79l-26 27l77 79q9 11 14 23l2 6h-43z" />
    <glyph glyph-name="schwa" unicode="&#x259;" horiz-adv-x="559" 
d="M259 540h136q66 0 98 -32q27 -27 29 -76.5t-25 -171.5q-26 -109 -44.5 -151.5t-43.5 -67.5q-41 -41 -130 -41h-120q-66 0 -98 32q-28 28 -29.5 79.5t30.5 178.5q4 14 16 14h326q27 119 10 136q-10 10 -45 10h-108q-38 0 -50 -12t-27 -66h-101q28 99 61 132q37 36 115 36z
M342 103q14 15 42 119h-236q-24 -106 -8 -122q10 -10 45 -10h106q38 0 51 13z" />
    <glyph glyph-name="circumflex" unicode="&#x2c6;" horiz-adv-x="494" 
d="M406 608l-59 52l-89 -52h-86v5l129 117h120l71 -117v-5h-86z" />
    <glyph glyph-name="caron" unicode="&#x2c7;" horiz-adv-x="494" 
d="M286 730l59 -52l89 52h86v-5l-129 -117h-120l-71 117v5h86z" />
    <glyph glyph-name="breve" unicode="&#x2d8;" horiz-adv-x="494" 
d="M348 678q59 0 86 52h78q-18 -61 -63 -93t-111 -32q-64 0 -98.5 34t-31.5 91h76q2 -21 19 -36.5t45 -15.5z" />
    <glyph glyph-name="dotaccent" unicode="&#x2d9;" horiz-adv-x="494" 
d="M275 619l28 111h118l-28 -111h-118z" />
    <glyph glyph-name="ring" unicode="&#x2da;" horiz-adv-x="494" 
d="M321 666h55q22 0 30 8q9 9 15 35q7 30 -2 39q-6 6 -28 6h-55q-22 0 -29 -7q-10 -10 -16 -36q-7 -30 2 -39q6 -6 28 -6zM487 703q-9 -41 -34 -66q-27 -27 -81 -27h-66q-47 0 -67 20q-28 28 -14 87q10 42 35 67q26 26 80 26h66q47 0 69 -22q26 -26 12 -85z" />
    <glyph glyph-name="ogonek" unicode="&#x2db;" horiz-adv-x="494" 
d="M124 -80q-7 -31 -3 -38q4 -6 21 -6h28q11 0 15 4q7 5 18 50h73q-14 -56 -23.5 -77.5t-25.5 -32.5q-19 -14 -57 -14h-57q-46 0 -63 17q-20 21 -10 77q7 37 30 64q22 26 98 71l24 -27q-36 -29 -51 -45q-9 -10 -17 -43z" />
    <glyph glyph-name="tilde" unicode="&#x2dc;" horiz-adv-x="494" 
d="M181 608l15 63q9 35 27 50q17 13 41 13h10q30 0 78 -20l67 -28l40 48h53l-16 -63q-9 -36 -26 -50q-17 -13 -41 -13h-10q-31 0 -78 20l-65 29l-42 -49h-53z" />
    <glyph glyph-name="hungarumlaut" unicode="&#x2dd;" horiz-adv-x="494" 
d="M106 608v5l112 107h148v-5l-165 -107h-95zM322 608v5l112 107h148v-5l-165 -107h-95z" />
    <glyph glyph-name="commaaccent" unicode="&#x326;" horiz-adv-x="494" 
d="M115 -70h113l-29 -114q-10 -37 -41 -62l-97 -79l-26 27l77 79q9 11 14 23l2 6h-43z" />
    <glyph glyph-name="Wgrave" unicode="&#x1e80;" horiz-adv-x="931" 
d="M534 702h56q34 0 43.5 -8t9.5 -33l-7 -520h13l243 559h117l-314 -679q-7 -15 -15.5 -19.5t-30.5 -4.5h-62q-35 0 -44.5 6.5t-8.5 31.5l8 516h-13l-253 -528q-7 -16 -16 -21t-30 -5h-64q-35 0 -44.5 6.5t-8.5 31.5l22 665h112l-29 -559h13l250 528q10 20 20.5 26.5
t32.5 6.5zM644 758h-94l-132 107v5h161l65 -107v-5z" />
    <glyph glyph-name="wgrave" unicode="&#x1e81;" horiz-adv-x="750" 
d="M404 542h58q21 0 30.5 -8t9.5 -28l1 -389h10l175 423h107l-233 -514q-13 -28 -43 -28h-69q-24 0 -33 7.5t-8 30.5l5 376h-8l-184 -386q-14 -28 -43 -28h-70q-24 0 -33 7.5t-8 30.5l21 504h100l-26 -423h10l187 397q13 28 44 28zM517 608h-94l-132 107v5h161l65 -107v-5z
" />
    <glyph glyph-name="Wacute" unicode="&#x1e82;" horiz-adv-x="931" 
d="M534 702h56q34 0 43.5 -8t9.5 -33l-7 -520h13l243 559h117l-314 -679q-7 -15 -15.5 -19.5t-30.5 -4.5h-62q-35 0 -44.5 6.5t-8.5 31.5l8 516h-13l-253 -528q-7 -16 -16 -21t-30 -5h-64q-35 0 -44.5 6.5t-8.5 31.5l22 665h112l-29 -559h13l250 528q10 20 20.5 26.5
t32.5 6.5zM517 758v5l113 107h160v-5l-169 -107h-104z" />
    <glyph glyph-name="wacute" unicode="&#x1e83;" horiz-adv-x="750" 
d="M404 542h58q21 0 30.5 -8t9.5 -28l1 -389h10l175 423h107l-233 -514q-13 -28 -43 -28h-69q-24 0 -33 7.5t-8 30.5l5 376h-8l-184 -386q-14 -28 -43 -28h-70q-24 0 -33 7.5t-8 30.5l21 504h100l-26 -423h10l187 397q13 28 44 28zM390 608v5l113 107h160v-5l-169 -107h-104
z" />
    <glyph glyph-name="Wdieresis" unicode="&#x1e84;" horiz-adv-x="931" 
d="M534 702h56q34 0 43.5 -8t9.5 -33l-7 -520h13l243 559h117l-314 -679q-7 -15 -15.5 -19.5t-30.5 -4.5h-62q-35 0 -44.5 6.5t-8.5 31.5l8 516h-13l-253 -528q-7 -16 -16 -21t-30 -5h-64q-35 0 -44.5 6.5t-8.5 31.5l22 665h112l-29 -559h13l250 528q10 20 20.5 26.5
t32.5 6.5zM440 760l27 110h111l-27 -110h-111zM625 760l27 110h111l-27 -110h-111z" />
    <glyph glyph-name="wdieresis" unicode="&#x1e85;" horiz-adv-x="750" 
d="M404 542h58q21 0 30.5 -8t9.5 -28l1 -389h10l175 423h107l-233 -514q-13 -28 -43 -28h-69q-24 0 -33 7.5t-8 30.5l5 376h-8l-184 -386q-14 -28 -43 -28h-70q-24 0 -33 7.5t-8 30.5l21 504h100l-26 -423h10l187 397q13 28 44 28zM313 610l27 110h111l-27 -110h-111z
M498 610l27 110h111l-27 -110h-111z" />
    <glyph glyph-name="Ygrave" unicode="&#x1ef2;" horiz-adv-x="595" 
d="M701 700l-344 -420l-69 -280h-112l71 286l-140 414h116l97 -310h8l246 310h127zM473 758h-94l-132 107v5h161l65 -107v-5z" />
    <glyph glyph-name="ygrave" unicode="&#x1ef3;" horiz-adv-x="536" 
d="M82 540h109l48 -391h6l220 391h117l-374 -625q-40 -67 -113 -67q-36 0 -106 7l22 86h92q15 0 27 18l29 47zM412 608h-94l-132 107v5h161l65 -107v-5z" />
    <glyph glyph-name="enspace" unicode="&#x2002;" horiz-adv-x="500" 
 />
    <glyph glyph-name="emspace" unicode="&#x2003;" horiz-adv-x="1000" 
 />
    <glyph glyph-name="threeperemspace" unicode="&#x2004;" horiz-adv-x="333" 
 />
    <glyph glyph-name="fourperemspace" unicode="&#x2005;" horiz-adv-x="250" 
 />
    <glyph glyph-name="thinspace" unicode="&#x2009;" horiz-adv-x="133" 
 />
    <glyph glyph-name="hairspace" unicode="&#x200a;" horiz-adv-x="75" 
 />
    <glyph glyph-name="endash" unicode="&#x2013;" horiz-adv-x="548" 
d="M478 267h-410l26 104h410z" />
    <glyph glyph-name="emdash" unicode="&#x2014;" horiz-adv-x="982" 
d="M912 268h-844l26 102h844z" />
    <glyph glyph-name="quoteleft" unicode="&#x2018;" horiz-adv-x="263" 
d="M233 429h-127l32 128q9 39 45 68l108 88l29 -30l-86 -88q-11 -13 -15 -25l-2 -7h49z" />
    <glyph glyph-name="quoteright" unicode="&#x2019;" horiz-adv-x="263" 
d="M177 700h127l-32 -128q-9 -39 -45 -68l-108 -88l-29 30l86 88q11 12 15 25l2 7h-49z" />
    <glyph glyph-name="quotesinglbase" unicode="&#x201a;" horiz-adv-x="263" 
d="M35 134h127l-32 -128q-9 -39 -45 -68l-108 -88l-29 30l86 88q11 12 15 25l2 7h-49z" />
    <glyph glyph-name="quotedblleft" unicode="&#x201c;" horiz-adv-x="477" 
d="M447 429h-127l32 128q9 39 45 68l108 88l29 -30l-86 -88q-11 -13 -15 -25l-2 -7h49zM233 429h-127l32 128q9 39 45 68l108 88l29 -30l-86 -88q-11 -13 -15 -25l-2 -7h49z" />
    <glyph glyph-name="quotedblright" unicode="&#x201d;" horiz-adv-x="477" 
d="M177 700h127l-32 -128q-9 -39 -45 -68l-108 -88l-29 30l86 88q11 12 15 25l2 7h-49zM391 700h127l-32 -128q-9 -39 -45 -68l-108 -88l-29 30l86 88q11 12 15 25l2 7h-49z" />
    <glyph glyph-name="quotedblbase" unicode="&#x201e;" horiz-adv-x="477" 
d="M35 134h127l-32 -128q-9 -39 -45 -68l-108 -88l-29 30l86 88q11 12 15 25l2 7h-49zM249 134h127l-32 -128q-9 -39 -45 -68l-108 -88l-29 30l86 88q11 12 15 25l2 7h-49z" />
    <glyph glyph-name="dagger" unicode="&#x2020;" horiz-adv-x="472" 
d="M149 576l112 -26l-10 -40l-124 -26zM476 576l-22 -92l-113 26l10 40zM394 700l-59 -130h-48l7 130h100zM309 377l-89 -260h-44l41 260l50 113h48z" />
    <glyph glyph-name="daggerdbl" unicode="&#x2021;" horiz-adv-x="486" 
d="M156 576l112 -26l-10 -40l-124 -26zM483 576l-22 -92l-113 26l10 40zM401 700l-59 -130h-48l7 130h100zM44 124l22 92l112 -26l-10 -40zM371 124l-113 26l10 40l125 26zM226 0h-100l58 130h48zM308 350l-55 -140h-50l15 140l56 140h48z" />
    <glyph glyph-name="bullet" unicode="&#x2022;" horiz-adv-x="524" 
d="M274 513h78q51 0 69 -18q15 -15 16 -43t-13 -89t-25 -85t-28 -41q-24 -24 -75 -24h-78q-52 0 -68 16q-17 17 -17.5 45t13.5 89t25 85t28 41q24 24 75 24z" />
    <glyph glyph-name="ellipsis" unicode="&#x2026;" horiz-adv-x="848" 
d="M44 130h122l-32 -130h-122zM328 130h122l-32 -130h-122zM612 130h122l-32 -130h-122z" />
    <glyph glyph-name="guilsinglleft" unicode="&#x2039;" horiz-adv-x="390" 
d="M61 249l13 64l177 141h125l-214 -182l124 -186h-114z" />
    <glyph glyph-name="guilsinglright" unicode="&#x203a;" horiz-adv-x="390" 
d="M14 86l214 181l-124 187h114l111 -163l-13 -64l-177 -141h-125z" />
    <glyph glyph-name="fraction" unicode="&#x2044;" horiz-adv-x="590" 
d="M36 -3h-91l346 373l303 333h91l-346 -373z" />
    <glyph glyph-name="Euro" unicode="&#x20ac;" horiz-adv-x="669" 
d="M505 241h107q-43 -150 -88 -195q-29 -29 -59 -37.5t-84 -8.5h-135q-79 0 -111 32q-47 45 -30 181h-76l23 92h70q2 10 13 55l10 41h-70l23 92h74q36 116 81 161q29 29 59 37.5t84 8.5h130q81 0 116 -33q23 -23 28.5 -64t-7.5 -133h-106q12 73 11.5 93.5t-9.5 29.5
q-12 12 -51 12h-125q-42 0 -58 -16q-18 -18 -42 -96h171l-23 -92h-174q-1 -4 -6 -22t-7 -29l-11 -45h175l-23 -92h-172q-15 -91 3 -107q11 -11 47 -11h130q43 0 59 16q22 22 53 130z" />
    <glyph glyph-name="published" unicode="&#x2117;" horiz-adv-x="788" 
d="M580 415q-15 -58 -43 -86q-23 -23 -74 -23h-127l-35 -141h-65l95 385h171q50 0 67 -17q33 -33 11 -118zM479 495h-97l-33 -134h109q25 0 34 9q14 14 26 59t-2 59q-7 7 -37 7zM142 350q-51 -227 7 -285q19 -19 47 -27.5t95 -8.5h113q67 0 101 9.5t61 36.5q76 76 120 275
q51 227 -7 285q-19 19 -47 27.5t-95 8.5h-113q-67 0 -101 -9.5t-61 -36.5q-76 -76 -120 -275zM719 350q-49 -212 -123 -286q-34 -34 -76 -49t-116 -15h-117q-75 0 -107.5 11t-54.5 33q-70 70 -16 306q49 212 123 286q34 34 76 49t116 15h117q75 0 107.5 -11t54.5 -33
q70 -70 16 -306z" />
    <glyph glyph-name="servicemark" unicode="&#x2120;" horiz-adv-x="850" 
d="M921 700l-96 -385h-65l81 324h-8l-164 -307q-6 -11 -10.5 -14t-15.5 -3h-34q-16 0 -20.5 4.5t-4.5 20.5l-12 305h-9l-83 -330h-60l96 385h86q14 0 19 -5.5t6 -19.5l12 -277h8l145 283q10 19 29 19h100zM400 582h-63q10 53 4 59q-5 5 -22 5h-88q-20 0 -27 -7
q-8 -8 -17 -44q-8 -33 -1 -39q7 -7 21 -9l98 -20q40 -8 55 -23q22 -22 7 -82q-10 -38 -17 -53.5t-21 -30.5q-22 -23 -70 -23h-125q-39 0 -54 16q-21 21 2 106h61q-13 -56 -7 -64q3 -4 20 -4h102q22 0 27 6q8 8 18 49q8 33 1 40q-5 5 -21 8l-97 19q-40 7 -56 23q-19 19 -6 84
q11 55 36 78q25 24 70 24h108q41 0 56 -15q13 -13 14.5 -35t-8.5 -68z" />
    <glyph glyph-name="trademark" unicode="&#x2122;" horiz-adv-x="837" 
d="M420 647h-112l-83 -332h-64l83 332h-113l13 53h289zM908 700l-96 -385h-65l81 324h-8l-164 -307q-6 -11 -10.5 -14t-15.5 -3h-34q-16 0 -20.5 4.5t-4.5 20.5l-12 305h-9l-83 -330h-60l96 385h86q14 0 19 -5.5t6 -19.5l12 -277h8l145 283q9 19 29 19h100z" />
    <glyph glyph-name="minus" unicode="&#x2212;" horiz-adv-x="508" 
d="M68 317l23 92h396l-23 -92h-396z" />
    <glyph glyph-name="NUL" unicode="&#xe05d;" horiz-adv-x="0" 
 />
    <glyph glyph-name="aring.alt" horiz-adv-x="560" 
d="M422 0h-95l16 70q-64 -43 -98 -57t-69 -14h-48q-57 0 -85 28q-36 36 -13 135q16 68 49 101q26 26 68.5 37t122.5 11q83 0 127 -16l15 61q17 72 2 87q-11 11 -41 11h-94q-36 0 -47 -11q-10 -10 -27 -69h-100q26 98 56 128t76 36q-6 24 3 58q10 42 35 67q26 26 80 26h66
q47 0 69 -22q26 -26 12 -85q-9 -37 -24 -56q12 -6 23 -17q40 -40 14 -142zM216 86q30 0 54.5 8.5t85.5 37.5l25 103h-133q-47 0 -65.5 -3.5t-29.5 -14.5q-12 -12 -22 -53q-14 -57 -1 -70q8 -8 39 -8h47zM336 545h55q22 0 30 8q9 9 15 35q7 30 -2 39q-6 6 -28 6h-55
q-22 0 -29 -7q-10 -10 -16 -36q-7 -30 2 -39q6 -6 28 -6z" />
    <glyph glyph-name="aringacute.alt" horiz-adv-x="560" 
d="M422 0h-95l16 70q-64 -43 -98 -57t-69 -14h-48q-57 0 -85 28q-36 36 -13 135q16 68 49 101q26 26 68.5 37t122.5 11q83 0 127 -16l15 61q17 72 2 87q-11 11 -41 11h-94q-36 0 -47 -11q-10 -10 -27 -69h-100q26 98 56 128t76 36q-6 24 3 58q10 42 35 67q26 26 80 26h66
q47 0 69 -22q26 -26 12 -85q-9 -37 -24 -56q12 -6 23 -17q40 -40 14 -142zM216 86q30 0 54.5 8.5t85.5 37.5l25 103h-133q-47 0 -65.5 -3.5t-29.5 -14.5q-12 -12 -22 -53q-14 -57 -1 -70q8 -8 39 -8h47zM353 747v5l113 107h160v-5l-169 -107h-104zM336 545h55q22 0 30 8
q9 9 15 35q7 30 -2 39q-6 6 -28 6h-55q-22 0 -29 -7q-10 -10 -16 -36q-7 -30 2 -39q6 -6 28 -6z" />
    <glyph glyph-name="registered.alt" horiz-adv-x="788" 
d="M518 165h-65q3 35 19 107q7 31 -3 41t-46 10h-90l-39 -158h-65l96 385h184q46 0 63 -17q27 -27 10 -96q-11 -49 -30.5 -67.5t-56.5 -22.5v-1q30 -7 40.5 -23t2.5 -53q-15 -69 -20 -105zM346 375h120q21 0 28 7q14 14 24 55q10 42 -1 53q-5 5 -28 5h-114zM142 350
q-51 -227 7 -285q19 -19 47 -27.5t95 -8.5h113q67 0 101 9.5t61 36.5q76 76 120 275q51 227 -7 285q-19 19 -47 27.5t-95 8.5h-113q-67 0 -101 -9.5t-61 -36.5q-76 -76 -120 -275zM719 350q-49 -212 -123 -286q-34 -34 -76 -49t-116 -15h-117q-75 0 -107.5 11t-54.5 33
q-70 70 -16 306q49 212 123 286q34 34 76 49t116 15h117q75 0 107.5 -11t54.5 -33q70 -70 16 -306z" />
    <glyph glyph-name="hfjslug" horiz-adv-x="688" 
d="M641 -200h-208l-8 14h-163l-8 -14h-207v303q13 0 22.5 9.5t9.5 22.5t-9.5 22.5t-22.5 9.5v554h100l30 79h334l29 -79h101v-921zM397 563v-172h15v78h38v14h-38v66h43v14h-58zM181 563v-172h15v79h47v-79h15v172h-15v-79h-47v79h-15zM457 394q10 -4 21 -4q31 0 31 36v137
h-16v-137q0 -22 -16 -22q-7 0 -20 5v-15zM368 465l-13 3q-4 -18 -8 -30h-1l-16 31q23 21 23 42q0 12 -7 21.5t-20 9.5q-12 0 -20 -9.5t-8 -21.5q0 -13 14 -39q-23 -18 -23 -47q0 -16 8 -26.5t21 -10.5q19 0 29 24h1l12 -24l12 6l-17 32q6 14 13 39zM520 323v-46h8v12l8 8
l15 -20h10l-20 26l18 20h-10l-20 -24h-1v24h-8zM485 292l10 -15h9l-12 17q10 4 10 14q0 15 -17 15h-20v-46h8v15h12zM423 276q10 0 17 7t7 17q0 9 -7 16.5t-17 7.5t-17 -7.5t-7 -16.5q0 -10 7 -17t17 -7zM367 301l-13 22h-9l18 -29v-17h8v17l18 29h-9zM190 323v-46h34v7h-26
v13h23v7h-23v12h26v7h-34zM129 323v-46h8v32l25 -32h7v46h-8v-32l-25 32h-7zM238 323l14 -47h8l11 34h1l11 -34h8l14 47h-8l-10 -35h-1l-11 35h-7l-11 -35h-1l-10 35h-8zM324 479q-12 22 -12 32q0 19 14 19q13 0 13 -19q0 -15 -15 -32zM339 423q-8 -21 -20 -21q-16 0 -16 25
q0 19 16 35zM484 299h-11v17h11q10 0 10 -8q0 -9 -10 -9zM423 283q-16 0 -16 17q0 6 4.5 11.5t11.5 5.5t11.5 -5.5t4.5 -11.5q0 -17 -16 -17z" />
    <glyph glyph-name="caron.alt" horiz-adv-x="494" 
d="M436 800l-19 -75q-10 -38 -22.5 -60.5t-41.5 -52.5l-60 -62l-32 21l42 81q11 22 11 46v82l5 20h117z" />
    <glyph glyph-name="i.dot" horiz-adv-x="250" 
d="M300 730l-28 -111h-118l28 111h118zM245 540l-136 -540h-104l136 540h104z" />
    </font>
</defs>
</svg>
